<svg width="133" height="19" viewBox="0 0 133 19" fill="none" xmlns="http://www.w3.org/2000/svg">
<path d="M12.2772 7.65983H17.4735L13.298 10.5647L12.8347 10.8869L13.0161 11.4213L14.6284 16.173L10.3607 13.204L9.93242 12.906L9.50411 13.204L5.23643 16.173L6.8488 11.4213L7.03014 10.8869L6.56689 10.5647L2.39137 7.65983H7.5877H8.1252L8.29792 7.15083L9.93242 2.33401L11.5669 7.15083L11.7396 7.65983H12.2772ZM40.4294 7.65983H45.6257L41.4502 10.5647L40.9869 10.8869L41.1683 11.4213L42.7807 16.173L38.513 13.204L38.0847 12.906L37.6563 13.204L33.3887 16.173L35.001 11.4213L35.1824 10.8869L34.7191 10.5647L30.5436 7.65983H35.7399H36.2774L36.4502 7.15083L38.0847 2.33401L39.7192 7.15083L39.8919 7.65983H40.4294ZM66.2369 2.33401L67.8714 7.15083L68.0441 7.65983H68.5816H73.7779L69.6024 10.5647L69.1392 10.8869L69.3205 11.4213L70.9329 16.173L66.6652 13.204L66.2369 12.906L65.8086 13.204L61.5409 16.173L63.1533 11.4213L63.3346 10.8869L62.8713 10.5647L58.6958 7.65983H63.8922H64.4297L64.6024 7.15083L66.2369 2.33401ZM96.7338 7.65983H101.93L97.7547 10.5647L97.2914 10.8869L97.4727 11.4213L99.0851 16.173L94.8174 13.204L94.3891 12.906L93.9608 13.204L89.6931 16.173L91.3055 11.4213L91.4868 10.8869L91.0236 10.5647L86.8481 7.65983H92.0444H92.5819L92.7546 7.15083L94.3891 2.33401L96.0236 7.15083L96.1963 7.65983H96.7338ZM122.541 2.33401L124.176 7.15083L124.349 7.65983H124.886H130.082L125.907 10.5647L125.444 10.8869L125.625 11.4213L127.237 16.173L122.97 13.204L122.541 12.906L122.113 13.204L117.845 16.173L119.458 11.4213L119.639 10.8869L119.176 10.5647L115 7.65983H120.197H120.734L120.907 7.15083L122.541 2.33401Z" fill="white" stroke="#C7CA24" stroke-width="1.5"/>
</svg>
