<svg width="189" height="40" viewBox="0 0 189 40" fill="none" xmlns="http://www.w3.org/2000/svg">
<path d="M50.2875 11.302L55.0995 1.71045C55.0995 1.71045 31.0393 0.111943 23.3401 1.71045C15.6408 3.30895 -0.238955 35.2808 1.20472 37.6787C2.64839 40.0766 23.3401 38.478 23.3401 38.478L27.1897 28.0872H15.6408C19.4904 20.8935 20.7548 17.857 25.2649 11.302H50.2875Z" fill="#333333"/>
<path d="M50.2875 16.8971L39.701 37.6787H30.0769L33.9266 23.2914H29.1145L30.0769 16.8971H50.2875Z" fill="#333333"/>
<path d="M79.1597 8.10481H58.9491V13.6999C58.9491 13.6999 72.4229 12.1013 72.4229 13.6999C72.4229 15.2985 71.4113 16.8971 71.4113 16.8971C71.4113 16.8971 55.0995 16.0977 54.4264 18.4167C54.4264 18.4167 47.4002 26.4886 49.3251 28.8864C51.2499 31.2842 55.0995 28.8864 55.0995 28.8864C57.0243 26.4884 59.9115 23.2914 59.9115 23.2914H72.4229C75.2179 23.2914 76.8641 18.8264 78.1973 16.0977C79.7772 12.8639 81.0845 8.10481 79.1597 8.10481Z" fill="#333333"/>
<path d="M96.483 23.2914L91.671 8.10481H85.8966L74.3476 28.0872H81.0845L87.8213 17.6963L90.7086 28.8864H99.3702L108.994 8.10481H102.257L96.483 23.2914Z" fill="#333333"/>
<path d="M134.979 8.10481H113.806L105.381 29.6858H124.393L127.28 24.89L115.289 24.75L115.731 20.8935H128.242L129.205 16.8971H117.656L118.618 12.9006H133.054L134.979 8.10481Z" fill="#333333"/>
<path d="M146.528 8.10481C143.147 6.82642 141.247 6.81521 137.866 8.10481C133.712 15.6222 131.13 27.2878 136.615 29.6858C143.599 32.7389 150.444 29.6858 152.014 28.0872C153.584 26.4886 157.177 19.7364 162.889 8.10481C159.096 7.33115 158.163 7.33208 155.19 8.10481C152.352 14.3987 149.323 22.581 147.398 23.2914C145.474 24.0019 144.511 24.89 140.662 22.581C139.929 18.3143 143.625 14.0389 146.528 8.10481Z" fill="#333333"/>
<path d="M166.647 9.79225C168.479 7.64858 184.154 8.10481 185.987 8.99295C187.82 9.8811 189.281 12.0022 185.987 14.4992L180.212 13.6999C169.559 12.1761 169.626 13.6999 171.551 16.897C171.551 16.897 182.137 16.897 184.062 17.6963C185.987 18.4957 181.175 26.4885 181.175 26.4885C178.393 31.2032 159.039 28.8864 159.039 28.8864C159.039 28.8864 156.737 25.5305 160.964 24.0906H167.701C167.701 24.0906 170.848 24.0028 173.476 24.0906C176.103 24.1784 179.25 24.8899 176.363 20.8935C174.438 19.2949 167.701 20.8935 164.814 20.0941C163.797 15.0293 164.814 11.9359 166.647 9.79225Z" fill="#333333"/>
<path d="M45.4754 38.478V35.2808H145.566L148.453 38.478H45.4754Z" fill="#333333"/>
<path d="M50.2875 11.302L55.0995 1.71045C55.0995 1.71045 31.0393 0.111943 23.3401 1.71045C15.6408 3.30895 -0.238955 35.2808 1.20472 37.6787C2.64839 40.0766 23.3401 38.478 23.3401 38.478L27.1897 28.0872H15.6408C19.4904 20.8935 20.7548 17.857 25.2649 11.302H50.2875Z" stroke="#333333"/>
<path d="M50.2875 16.8971L39.701 37.6787H30.0769L33.9266 23.2914H29.1145L30.0769 16.8971H50.2875Z" stroke="#333333"/>
<path d="M79.1597 8.10481H58.9491V13.6999C58.9491 13.6999 72.4229 12.1013 72.4229 13.6999C72.4229 15.2985 71.4113 16.8971 71.4113 16.8971C71.4113 16.8971 55.0995 16.0977 54.4264 18.4167C54.4264 18.4167 47.4002 26.4886 49.3251 28.8864C51.2499 31.2842 55.0995 28.8864 55.0995 28.8864C57.0243 26.4884 59.9115 23.2914 59.9115 23.2914H72.4229C75.2179 23.2914 76.8641 18.8264 78.1973 16.0977C79.7772 12.8639 81.0845 8.10481 79.1597 8.10481Z" stroke="#333333"/>
<path d="M96.483 23.2914L91.671 8.10481H85.8966L74.3476 28.0872H81.0845L87.8213 17.6963L90.7086 28.8864H99.3702L108.994 8.10481H102.257L96.483 23.2914Z" stroke="#333333"/>
<path d="M134.979 8.10481H113.806L105.381 29.6858H124.393L127.28 24.89L115.289 24.75L115.731 20.8935H128.242L129.205 16.8971H117.656L118.618 12.9006H133.054L134.979 8.10481Z" stroke="#333333"/>
<path d="M146.528 8.10481C143.147 6.82642 141.247 6.81521 137.866 8.10481C133.712 15.6222 131.13 27.2878 136.615 29.6858C143.599 32.7389 150.444 29.6858 152.014 28.0872C153.584 26.4886 157.177 19.7364 162.889 8.10481C159.096 7.33115 158.163 7.33208 155.19 8.10481C152.352 14.3987 149.323 22.581 147.398 23.2914C145.474 24.0019 144.511 24.89 140.662 22.581C139.929 18.3143 143.625 14.0389 146.528 8.10481Z" stroke="#333333"/>
<path d="M166.647 9.79225C168.479 7.64858 184.154 8.10481 185.987 8.99295C187.82 9.8811 189.281 12.0022 185.987 14.4992L180.212 13.6999C169.559 12.1761 169.626 13.6999 171.551 16.897C171.551 16.897 182.137 16.897 184.062 17.6963C185.987 18.4957 181.175 26.4885 181.175 26.4885C178.393 31.2032 159.039 28.8864 159.039 28.8864C159.039 28.8864 156.737 25.5305 160.964 24.0906H167.701C167.701 24.0906 170.848 24.0028 173.476 24.0906C176.103 24.1784 179.25 24.8899 176.363 20.8935C174.438 19.2949 167.701 20.8935 164.814 20.0941C163.797 15.0293 164.814 11.9359 166.647 9.79225Z" stroke="#333333"/>
<path d="M45.4754 38.478V35.2808H145.566L148.453 38.478H45.4754Z" stroke="#333333"/>
</svg>
