<svg width="243" height="45" viewBox="0 0 243 45" fill="none" xmlns="http://www.w3.org/2000/svg">
<path d="M33.5765 34V4.06803V2H59.2406L56.765 8.85714H43.314V15.2789H56.765L53.134 23.0068H43.314V34H33.5765Z" fill="#FFE62A" stroke="#333333" stroke-width="4"/>
<path d="M12.9395 4H8.02889H2.77966V34H23.6919L27.4172 22.9686H12.9395V4Z" fill="#FFE62A" stroke="#333333" stroke-width="4"/>
<path d="M60.1994 27.2727H61.7974L64.5758 34.0568H64.6781L67.4565 27.2727H69.0545V36H67.8017V29.6847H67.7207L65.1469 35.9872H64.1071L61.5332 29.6804H61.4522V36H60.1994V27.2727ZM71.7062 36H70.3084L73.4491 27.2727H74.9704L78.111 36H76.7133L74.2459 28.858H74.1777L71.7062 36ZM71.9405 32.5824H76.4746V33.6903H71.9405V32.5824ZM73.6834 26.3991L74.6806 24.4347H76.0229L74.7019 26.3991H73.6834ZM82.1699 33.1705H83.4654L84.3773 34.3594L84.8077 34.8878L86.2608 36.7841H84.9143L83.9427 35.5185L83.6103 35.0582L82.1699 33.1705ZM86.5421 31.6364C86.5421 32.5682 86.3716 33.3693 86.0307 34.0398C85.6898 34.7074 85.2225 35.2216 84.6287 35.5824C84.0378 35.9403 83.366 36.1193 82.6131 36.1193C81.8574 36.1193 81.1827 35.9403 80.589 35.5824C79.9981 35.2216 79.5321 34.706 79.1912 34.0355C78.8503 33.3651 78.6799 32.5653 78.6799 31.6364C78.6799 30.7045 78.8503 29.9048 79.1912 29.2372C79.5321 28.5668 79.9981 28.0526 80.589 27.6946C81.1827 27.3338 81.8574 27.1534 82.6131 27.1534C83.366 27.1534 84.0378 27.3338 84.6287 27.6946C85.2225 28.0526 85.6898 28.5668 86.0307 29.2372C86.3716 29.9048 86.5421 30.7045 86.5421 31.6364ZM85.2381 31.6364C85.2381 30.9261 85.1231 30.3281 84.8929 29.8423C84.6657 29.3537 84.3532 28.9844 83.9554 28.7344C83.5606 28.4815 83.1131 28.3551 82.6131 28.3551C82.1103 28.3551 81.6614 28.4815 81.2665 28.7344C80.8716 28.9844 80.5591 29.3537 80.329 29.8423C80.1018 30.3281 79.9881 30.9261 79.9881 31.6364C79.9881 32.3466 80.1018 32.946 80.329 33.4347C80.5591 33.9205 80.8716 34.2898 81.2665 34.5426C81.6614 34.7926 82.1103 34.9176 82.6131 34.9176C83.1131 34.9176 83.5606 34.7926 83.9554 34.5426C84.3532 34.2898 84.6657 33.9205 84.8929 33.4347C85.1231 32.946 85.2381 32.3466 85.2381 31.6364ZM93.796 27.2727H95.117V33.0128C95.117 33.6236 94.9736 34.1648 94.6866 34.6364C94.3997 35.1051 93.9963 35.4744 93.4764 35.7443C92.9565 36.0114 92.3471 36.1449 91.6483 36.1449C90.9522 36.1449 90.3443 36.0114 89.8244 35.7443C89.3045 35.4744 88.9011 35.1051 88.6142 34.6364C88.3272 34.1648 88.1838 33.6236 88.1838 33.0128V27.2727H89.5005V32.9062C89.5005 33.3011 89.5872 33.652 89.7605 33.9588C89.9366 34.2656 90.1852 34.5071 90.5062 34.6832C90.8272 34.8565 91.2079 34.9432 91.6483 34.9432C92.0915 34.9432 92.4736 34.8565 92.7946 34.6832C93.1184 34.5071 93.3656 34.2656 93.5361 33.9588C93.7094 33.652 93.796 33.3011 93.796 32.9062V27.2727ZM98.3482 27.2727V36H97.0314V27.2727H98.3482ZM107.31 27.2727V36H106.1L101.664 29.5994H101.583V36H100.266V27.2727H101.485L105.925 33.6818H106.006V27.2727H107.31ZM109.968 36H108.57L111.711 27.2727H113.232L116.373 36H114.975L112.508 28.858H112.439L109.968 36ZM110.202 32.5824H114.736V33.6903H110.202V32.5824ZM122.323 29.5653C122.277 29.1619 122.09 28.8494 121.76 28.6278C121.431 28.4034 121.016 28.2912 120.516 28.2912C120.158 28.2912 119.848 28.348 119.587 28.4616C119.325 28.5724 119.122 28.7259 118.977 28.9219C118.835 29.1151 118.764 29.3352 118.764 29.5824C118.764 29.7898 118.813 29.9687 118.909 30.1193C119.009 30.2699 119.138 30.3963 119.297 30.4986C119.459 30.598 119.632 30.6818 119.817 30.75C120.002 30.8153 120.179 30.8693 120.35 30.9119L121.202 31.1335C121.48 31.2017 121.766 31.294 122.058 31.4105C122.351 31.527 122.622 31.6804 122.872 31.8707C123.122 32.0611 123.324 32.2969 123.477 32.5781C123.634 32.8594 123.712 33.196 123.712 33.5881C123.712 34.0824 123.584 34.5213 123.328 34.9048C123.075 35.2884 122.708 35.5909 122.225 35.8125C121.745 36.0341 121.164 36.1449 120.482 36.1449C119.828 36.1449 119.263 36.0412 118.786 35.8338C118.308 35.6264 117.935 35.3324 117.665 34.9517C117.395 34.5682 117.246 34.1136 117.218 33.5881H118.539C118.564 33.9034 118.666 34.1662 118.845 34.3764C119.027 34.5838 119.259 34.7386 119.54 34.8409C119.824 34.9403 120.135 34.9901 120.473 34.9901C120.845 34.9901 121.176 34.9318 121.466 34.8153C121.759 34.696 121.989 34.5312 122.156 34.321C122.324 34.108 122.408 33.8594 122.408 33.5753C122.408 33.3168 122.334 33.1051 122.186 32.9403C122.041 32.7756 121.844 32.6392 121.594 32.5312C121.347 32.4233 121.067 32.3281 120.754 32.2457L119.723 31.9645C119.024 31.7741 118.47 31.4943 118.061 31.125C117.655 30.7557 117.452 30.267 117.452 29.6591C117.452 29.1562 117.588 28.7173 117.861 28.3423C118.134 27.9673 118.503 27.6761 118.969 27.4688C119.435 27.2585 119.96 27.1534 120.546 27.1534C121.137 27.1534 121.658 27.2571 122.11 27.4645C122.564 27.6719 122.922 27.9574 123.183 28.321C123.445 28.6818 123.581 29.0966 123.593 29.5653H122.323ZM128.461 36V27.2727H133.933V28.4062H129.778V31.0653H133.647V32.1946H129.778V34.8665H133.984V36H128.461ZM138.867 36V27.2727H144.279V28.4062H140.184V31.0653H143.892V32.1946H140.184V36H138.867ZM145.899 36V27.2727H151.37V28.4062H147.215V31.0653H151.085V32.1946H147.215V34.8665H151.421V36H145.899ZM153.129 36V27.2727H156.24C156.916 27.2727 157.477 27.3892 157.923 27.6222C158.372 27.8551 158.707 28.1776 158.929 28.5895C159.15 28.9986 159.261 29.4716 159.261 30.0085C159.261 30.5426 159.149 31.0128 158.925 31.419C158.703 31.8224 158.368 32.1364 157.919 32.3608C157.473 32.5852 156.912 32.6974 156.236 32.6974H153.879V31.5639H156.116C156.542 31.5639 156.889 31.5028 157.156 31.3807C157.426 31.2585 157.623 31.081 157.748 30.848C157.873 30.6151 157.936 30.3352 157.936 30.0085C157.936 29.679 157.872 29.3935 157.744 29.152C157.619 28.9105 157.422 28.7259 157.152 28.598C156.885 28.4673 156.534 28.402 156.099 28.402H154.446V36H153.129ZM157.437 32.0625L159.594 36H158.094L155.98 32.0625H157.437ZM160.863 36V27.2727H163.974C164.65 27.2727 165.211 27.3892 165.658 27.6222C166.106 27.8551 166.442 28.1776 166.663 28.5895C166.885 28.9986 166.996 29.4716 166.996 30.0085C166.996 30.5426 166.883 31.0128 166.659 31.419C166.437 31.8224 166.102 32.1364 165.653 32.3608C165.207 32.5852 164.646 32.6974 163.97 32.6974H161.613V31.5639H163.851C164.277 31.5639 164.623 31.5028 164.89 31.3807C165.16 31.2585 165.358 31.081 165.483 30.848C165.608 30.6151 165.67 30.3352 165.67 30.0085C165.67 29.679 165.606 29.3935 165.479 29.152C165.354 28.9105 165.156 28.7259 164.886 28.598C164.619 28.4673 164.268 28.402 163.834 28.402H162.18V36H160.863ZM165.172 32.0625L167.328 36H165.828L163.714 32.0625H165.172ZM169.335 36H167.937L171.078 27.2727H172.599L175.74 36H174.342L171.875 28.858H171.807L169.335 36ZM169.569 32.5824H174.104V33.6903H169.569V32.5824ZM177 27.2727H178.598L181.377 34.0568H181.479L184.257 27.2727H185.855V36H184.602V29.6847H184.521L181.948 35.9872H180.908L178.334 29.6804H178.253V36H177V27.2727ZM187.77 36V27.2727H193.241V28.4062H189.086V31.0653H192.956V32.1946H189.086V34.8665H193.292V36H187.77ZM202.044 27.2727V36H200.834L196.398 29.5994H196.317V36H195V27.2727H196.219L200.659 33.6818H200.74V27.2727H202.044ZM203.535 28.4062V27.2727H210.289V28.4062H207.566V36H206.253V28.4062H203.535ZM211.487 36H210.09L213.23 27.2727H214.752L217.892 36H216.495L214.027 28.858H213.959L211.487 36ZM211.722 32.5824H216.256V33.6903H211.722V32.5824ZM223.842 29.5653C223.797 29.1619 223.609 28.8494 223.28 28.6278C222.95 28.4034 222.535 28.2912 222.035 28.2912C221.677 28.2912 221.368 28.348 221.106 28.4616C220.845 28.5724 220.642 28.7259 220.497 28.9219C220.355 29.1151 220.284 29.3352 220.284 29.5824C220.284 29.7898 220.332 29.9687 220.429 30.1193C220.528 30.2699 220.658 30.3963 220.817 30.4986C220.979 30.598 221.152 30.6818 221.336 30.75C221.521 30.8153 221.699 30.8693 221.869 30.9119L222.721 31.1335C223 31.2017 223.285 31.294 223.578 31.4105C223.871 31.527 224.142 31.6804 224.392 31.8707C224.642 32.0611 224.844 32.2969 224.997 32.5781C225.153 32.8594 225.231 33.196 225.231 33.5881C225.231 34.0824 225.104 34.5213 224.848 34.9048C224.595 35.2884 224.227 35.5909 223.744 35.8125C223.264 36.0341 222.683 36.1449 222.001 36.1449C221.348 36.1449 220.783 36.0412 220.305 35.8338C219.828 35.6264 219.454 35.3324 219.184 34.9517C218.915 34.5682 218.765 34.1136 218.737 33.5881H220.058C220.084 33.9034 220.186 34.1662 220.365 34.3764C220.547 34.5838 220.778 34.7386 221.059 34.8409C221.344 34.9403 221.655 34.9901 221.993 34.9901C222.365 34.9901 222.696 34.9318 222.986 34.8153C223.278 34.696 223.508 34.5312 223.676 34.321C223.844 34.108 223.927 33.8594 223.927 33.5753C223.927 33.3168 223.854 33.1051 223.706 32.9403C223.561 32.7756 223.363 32.6392 223.113 32.5312C222.866 32.4233 222.586 32.3281 222.274 32.2457L221.243 31.9645C220.544 31.7741 219.99 31.4943 219.581 31.125C219.175 30.7557 218.971 30.267 218.971 29.6591C218.971 29.1562 219.108 28.7173 219.381 28.3423C219.653 27.9673 220.023 27.6761 220.488 27.4688C220.954 27.2585 221.48 27.1534 222.065 27.1534C222.656 27.1534 223.177 27.2571 223.629 27.4645C224.084 27.6719 224.442 27.9574 224.703 28.321C224.964 28.6818 225.101 29.0966 225.112 29.5653H223.842Z" fill="#333333"/>
</svg>
