<svg width="376" height="67" viewBox="0 0 376 67" fill="none" xmlns="http://www.w3.org/2000/svg">
<path d="M96.9318 50.4545H98.4659L103.743 63.125H103.871L109.148 50.4545H110.682V65H109.432V53.2599H109.318L104.411 65H103.203L98.2955 53.2599H98.1818V65H96.9318V50.4545ZM114.57 65H113.178L118.469 50.4545H119.89L125.181 65H123.789L119.229 52.1804H119.13L114.57 65ZM115.572 59.4247H122.788V60.6179H115.572V59.4247ZM118.59 48.9418L120.408 45.7173H121.907L119.727 48.9418H118.59ZM132.438 60.4545H133.915L135.776 62.919L136.088 63.331L138.375 66.3636H136.898L135.222 64.1264L134.924 63.7287L132.438 60.4545ZM138.915 57.7273C138.915 59.2424 138.645 60.5611 138.105 61.6832C137.566 62.8007 136.822 63.6671 135.875 64.2827C134.933 64.8935 133.849 65.1989 132.623 65.1989C131.396 65.1989 130.31 64.8935 129.363 64.2827C128.42 63.6671 127.679 62.8007 127.14 61.6832C126.605 60.5611 126.337 59.2424 126.337 57.7273C126.337 56.2121 126.605 54.8958 127.14 53.7784C127.679 52.6562 128.423 51.7898 129.37 51.179C130.317 50.5634 131.401 50.2557 132.623 50.2557C133.849 50.2557 134.933 50.5634 135.875 51.179C136.822 51.7898 137.566 52.6562 138.105 53.7784C138.645 54.8958 138.915 56.2121 138.915 57.7273ZM137.623 57.7273C137.623 56.4252 137.405 55.3101 136.969 54.3821C136.533 53.4493 135.939 52.7367 135.186 52.2443C134.434 51.7519 133.579 51.5057 132.623 51.5057C131.671 51.5057 130.819 51.7519 130.066 52.2443C129.313 52.7367 128.716 53.447 128.276 54.375C127.84 55.303 127.623 56.4205 127.623 57.7273C127.623 59.0294 127.84 60.1444 128.276 61.0724C128.712 62.0005 129.306 62.7131 130.059 63.2102C130.811 63.7027 131.666 63.9489 132.623 63.9489C133.579 63.9489 134.434 63.7027 135.186 63.2102C135.944 62.7178 136.541 62.0076 136.976 61.0795C137.412 60.1468 137.627 59.0294 137.623 57.7273ZM151.822 50.4545H153.15V60.0852C153.15 61.0748 152.918 61.9602 152.454 62.7415C151.99 63.518 151.344 64.1312 150.515 64.581C149.691 65.026 148.732 65.2486 147.638 65.2486C146.549 65.2486 145.591 65.0237 144.762 64.5739C143.933 64.1241 143.287 63.5109 142.823 62.7344C142.359 61.9579 142.127 61.0748 142.127 60.0852V50.4545H143.455V59.9929C143.455 60.7647 143.628 61.4536 143.974 62.0597C144.319 62.661 144.805 63.1345 145.43 63.4801C146.059 63.8258 146.796 63.9986 147.638 63.9986C148.481 63.9986 149.218 63.8258 149.847 63.4801C150.477 63.1345 150.962 62.661 151.303 62.0597C151.649 61.4536 151.822 60.7647 151.822 59.9929V50.4545ZM158.338 50.4545V65H157.01V50.4545H158.338ZM173.533 50.4545V65H172.241L163.647 52.8196H163.533V65H162.205V50.4545H163.491L172.113 62.6491H172.227V50.4545H173.533ZM177.422 65H176.03L181.321 50.4545H182.741L188.033 65H186.641L182.081 52.1804H181.982L177.422 65ZM178.423 59.4247H185.639V60.6179H178.423V59.4247ZM198.423 54.0909C198.343 53.2812 197.985 52.6373 197.351 52.1591C196.716 51.6809 195.919 51.4418 194.957 51.4418C194.28 51.4418 193.684 51.5578 193.168 51.7898C192.656 52.0218 192.254 52.3437 191.96 52.7557C191.671 53.1629 191.527 53.6269 191.527 54.1477C191.527 54.5312 191.61 54.8674 191.776 55.1562C191.941 55.4451 192.164 55.6937 192.443 55.902C192.727 56.1056 193.04 56.2808 193.381 56.4276C193.726 56.5743 194.074 56.6974 194.425 56.7969L195.959 57.2372C196.423 57.3651 196.887 57.5284 197.351 57.7273C197.815 57.9261 198.239 58.1771 198.622 58.4801C199.01 58.7784 199.321 59.1454 199.553 59.581C199.789 60.0118 199.908 60.5303 199.908 61.1364C199.908 61.9129 199.706 62.6113 199.304 63.2315C198.902 63.8518 198.324 64.3442 197.571 64.7088C196.818 65.0687 195.916 65.2486 194.865 65.2486C193.875 65.2486 193.016 65.0852 192.287 64.7585C191.558 64.4271 190.985 63.9702 190.568 63.3878C190.152 62.8054 189.917 62.1307 189.865 61.3636H191.229C191.276 61.9366 191.465 62.4219 191.797 62.8196C192.128 63.2173 192.559 63.5204 193.089 63.7287C193.62 63.9323 194.212 64.0341 194.865 64.0341C195.589 64.0341 196.233 63.9134 196.797 63.6719C197.365 63.4257 197.81 63.0848 198.132 62.6491C198.459 62.2088 198.622 61.6974 198.622 61.1151C198.622 60.6226 198.494 60.2107 198.239 59.8793C197.983 59.5431 197.625 59.2614 197.166 59.0341C196.712 58.8068 196.184 58.6056 195.582 58.4304L193.842 57.919C192.701 57.5781 191.816 57.107 191.186 56.5057C190.556 55.9044 190.241 55.1373 190.241 54.2045C190.241 53.4233 190.45 52.7367 190.866 52.1449C191.288 51.5483 191.856 51.0843 192.571 50.7528C193.291 50.4167 194.098 50.2486 194.993 50.2486C195.897 50.2486 196.697 50.4143 197.393 50.7457C198.089 51.0772 198.641 51.5341 199.048 52.1165C199.46 52.6941 199.68 53.3523 199.709 54.0909H198.423ZM208.729 65V50.4545H217.166V51.6477H210.057V57.1236H216.719V58.3168H210.057V63.8068H217.308V65H208.729ZM226.229 65V50.4545H234.645V51.6477H227.557V57.1236H233.984V58.3168H227.557V65H226.229ZM237.947 65V50.4545H246.385V51.6477H239.276V57.1236H245.938V58.3168H239.276V63.8068H246.527V65H237.947ZM249.822 65V50.4545H254.517C255.549 50.4545 256.411 50.6416 257.102 51.0156C257.798 51.3849 258.321 51.8987 258.672 52.5568C259.027 53.2102 259.205 53.9607 259.205 54.8082C259.205 55.6558 259.027 56.4039 258.672 57.0526C258.321 57.7012 257.801 58.2079 257.109 58.5724C256.418 58.937 255.561 59.1193 254.538 59.1193H250.54V57.9048H254.503C255.26 57.9048 255.89 57.7794 256.392 57.5284C256.899 57.2775 257.275 56.92 257.521 56.456C257.772 55.992 257.898 55.4427 257.898 54.8082C257.898 54.1738 257.772 53.6198 257.521 53.1463C257.27 52.6681 256.892 52.2988 256.385 52.0384C255.883 51.7779 255.249 51.6477 254.482 51.6477H251.151V65H249.822ZM256.236 58.4375L259.815 65H258.281L254.737 58.4375H256.236ZM262.44 65V50.4545H267.134C268.166 50.4545 269.028 50.6416 269.719 51.0156C270.415 51.3849 270.939 51.8987 271.289 52.5568C271.644 53.2102 271.822 53.9607 271.822 54.8082C271.822 55.6558 271.644 56.4039 271.289 57.0526C270.939 57.7012 270.418 58.2079 269.727 58.5724C269.035 58.937 268.178 59.1193 267.156 59.1193H263.157V57.9048H267.12C267.878 57.9048 268.507 57.7794 269.009 57.5284C269.516 57.2775 269.892 56.92 270.138 56.456C270.389 55.992 270.515 55.4427 270.515 54.8082C270.515 54.1738 270.389 53.6198 270.138 53.1463C269.888 52.6681 269.509 52.2988 269.002 52.0384C268.5 51.7779 267.866 51.6477 267.099 51.6477H263.768V65H262.44ZM268.853 58.4375L272.433 65H270.898L267.354 58.4375H268.853ZM275.078 65H273.686L278.977 50.4545H280.398L285.689 65H284.297L279.737 52.1804H279.638L275.078 65ZM276.08 59.4247H283.295V60.6179H276.08V59.4247ZM288.182 50.4545H289.716L294.993 63.125H295.121L300.398 50.4545H301.932V65H300.682V53.2599H300.568L295.661 65H294.453L289.545 53.2599H289.432V65H288.182V50.4545ZM305.799 65V50.4545H314.237V51.6477H307.127V57.1236H313.789V58.3168H307.127V63.8068H314.379V65H305.799ZM329.002 50.4545V65H327.71L319.116 52.8196H319.002V65H317.674V50.4545H318.96L327.582 62.6491H327.695V50.4545H329.002ZM331.989 51.6477V50.4545H342.536V51.6477H337.926V65H336.598V51.6477H331.989ZM343.848 65H342.456L347.747 50.4545H349.167L354.458 65H353.066L348.507 52.1804H348.407L343.848 65ZM344.849 59.4247H352.065V60.6179H344.849V59.4247ZM364.849 54.0909C364.769 53.2812 364.411 52.6373 363.777 52.1591C363.142 51.6809 362.344 51.4418 361.383 51.4418C360.706 51.4418 360.109 51.5578 359.593 51.7898C359.082 52.0218 358.68 52.3437 358.386 52.7557C358.097 53.1629 357.953 53.6269 357.953 54.1477C357.953 54.5312 358.036 54.8674 358.201 55.1562C358.367 55.4451 358.59 55.6937 358.869 55.902C359.153 56.1056 359.466 56.2808 359.806 56.4276C360.152 56.5743 360.5 56.6974 360.85 56.7969L362.385 57.2372C362.849 57.3651 363.313 57.5284 363.777 57.7273C364.241 57.9261 364.664 58.1771 365.048 58.4801C365.436 58.7784 365.746 59.1454 365.978 59.581C366.215 60.0118 366.333 60.5303 366.333 61.1364C366.333 61.9129 366.132 62.6113 365.73 63.2315C365.327 63.8518 364.75 64.3442 363.997 64.7088C363.244 65.0687 362.342 65.2486 361.291 65.2486C360.301 65.2486 359.442 65.0852 358.713 64.7585C357.984 64.4271 357.411 63.9702 356.994 63.3878C356.577 62.8054 356.343 62.1307 356.291 61.3636H357.654C357.702 61.9366 357.891 62.4219 358.223 62.8196C358.554 63.2173 358.985 63.5204 359.515 63.7287C360.046 63.9323 360.637 64.0341 361.291 64.0341C362.015 64.0341 362.659 63.9134 363.223 63.6719C363.791 63.4257 364.236 63.0848 364.558 62.6491C364.885 62.2088 365.048 61.6974 365.048 61.1151C365.048 60.6226 364.92 60.2107 364.664 59.8793C364.409 59.5431 364.051 59.2614 363.592 59.0341C363.137 58.8068 362.609 58.6056 362.008 58.4304L360.268 57.919C359.127 57.5781 358.242 57.107 357.612 56.5057C356.982 55.9044 356.667 55.1373 356.667 54.2045C356.667 53.4233 356.876 52.7367 357.292 52.1449C357.714 51.5483 358.282 51.0843 358.997 50.7528C359.717 50.4167 360.524 50.2486 361.419 50.2486C362.323 50.2486 363.123 50.4143 363.819 50.7457C364.515 51.0772 365.067 51.5341 365.474 52.1165C365.886 52.6941 366.106 53.3523 366.135 54.0909H364.849Z" fill="#FFE62A"/>
<path d="M96.9318 50.4545V49.4545H95.9318V50.4545H96.9318ZM98.4659 50.4545L99.389 50.0701L99.1327 49.4545H98.4659V50.4545ZM103.743 63.125L102.82 63.5095L103.076 64.125H103.743V63.125ZM103.871 63.125V64.125H104.538L104.794 63.5095L103.871 63.125ZM109.148 50.4545V49.4545H108.481L108.225 50.0701L109.148 50.4545ZM110.682 50.4545H111.682V49.4545H110.682V50.4545ZM110.682 65V66H111.682V65H110.682ZM109.432 65H108.432V66H109.432V65ZM109.432 53.2599H110.432V52.2599H109.432V53.2599ZM109.318 53.2599V52.2599H108.652L108.396 52.8743L109.318 53.2599ZM104.411 65V66H105.076L105.333 65.3857L104.411 65ZM103.203 65L102.28 65.3857L102.537 66H103.203V65ZM98.2955 53.2599L99.2181 52.8743L98.9613 52.2599H98.2955V53.2599ZM98.1818 53.2599V52.2599H97.1818V53.2599H98.1818ZM98.1818 65V66H99.1818V65H98.1818ZM96.9318 65H95.9318V66H96.9318V65ZM96.9318 51.4545H98.4659V49.4545H96.9318V51.4545ZM97.5428 50.839L102.82 63.5095L104.666 62.7405L99.389 50.0701L97.5428 50.839ZM103.743 64.125H103.871V62.125H103.743V64.125ZM104.794 63.5095L110.071 50.839L108.225 50.0701L102.948 62.7405L104.794 63.5095ZM109.148 51.4545H110.682V49.4545H109.148V51.4545ZM109.682 50.4545V65H111.682V50.4545H109.682ZM110.682 64H109.432V66H110.682V64ZM110.432 65V53.2599H108.432V65H110.432ZM109.432 52.2599H109.318V54.2599H109.432V52.2599ZM108.396 52.8743L103.488 64.6143L105.333 65.3857L110.241 53.6456L108.396 52.8743ZM104.411 64H103.203V66H104.411V64ZM104.126 64.6143L99.2181 52.8743L97.3728 53.6456L102.28 65.3857L104.126 64.6143ZM98.2955 52.2599H98.1818V54.2599H98.2955V52.2599ZM97.1818 53.2599V65H99.1818V53.2599H97.1818ZM98.1818 64H96.9318V66H98.1818V64ZM97.9318 65V50.4545H95.9318V65H97.9318ZM114.57 65V66H115.276L115.512 65.3351L114.57 65ZM113.178 65L112.239 64.6581L111.75 66H113.178V65ZM118.469 50.4545V49.4545H117.769L117.53 50.1127L118.469 50.4545ZM119.89 50.4545L120.83 50.1127L120.59 49.4545H119.89V50.4545ZM125.181 65V66H126.609L126.121 64.6581L125.181 65ZM123.789 65L122.847 65.3351L123.083 66H123.789V65ZM119.229 52.1804L120.172 51.8453L119.935 51.1804H119.229V52.1804ZM119.13 52.1804V51.1804H118.424L118.188 51.8453L119.13 52.1804ZM115.572 59.4247V58.4247H114.572V59.4247H115.572ZM122.788 59.4247H123.788V58.4247H122.788V59.4247ZM122.788 60.6179V61.6179H123.788V60.6179H122.788ZM115.572 60.6179H114.572V61.6179H115.572V60.6179ZM118.59 48.9418L117.719 48.4506L116.878 49.9418H118.59V48.9418ZM120.408 45.7173V44.7173H119.824L119.537 45.2262L120.408 45.7173ZM121.907 45.7173L122.735 46.2775L123.79 44.7173H121.907V45.7173ZM119.727 48.9418V49.9418H120.258L120.555 49.5019L119.727 48.9418ZM114.57 64H113.178V66H114.57V64ZM114.118 65.3419L119.409 50.7964L117.53 50.1127L112.239 64.6581L114.118 65.3419ZM118.469 51.4545H119.89V49.4545H118.469V51.4545ZM118.95 50.7964L124.241 65.3419L126.121 64.6581L120.83 50.1127L118.95 50.7964ZM125.181 64H123.789V66H125.181V64ZM124.731 64.6649L120.172 51.8453L118.287 52.5155L122.847 65.3351L124.731 64.6649ZM119.229 51.1804H119.13V53.1804H119.229V51.1804ZM118.188 51.8453L113.628 64.6649L115.512 65.3351L120.072 52.5155L118.188 51.8453ZM115.572 60.4247H122.788V58.4247H115.572V60.4247ZM121.788 59.4247V60.6179H123.788V59.4247H121.788ZM122.788 59.6179H115.572V61.6179H122.788V59.6179ZM116.572 60.6179V59.4247H114.572V60.6179H116.572ZM119.461 49.4329L121.279 46.2085L119.537 45.2262L117.719 48.4506L119.461 49.4329ZM120.408 46.7173H121.907V44.7173H120.408V46.7173ZM121.079 45.1572L118.898 48.3816L120.555 49.5019L122.735 46.2775L121.079 45.1572ZM119.727 47.9418H118.59V49.9418H119.727V47.9418ZM132.438 60.4545V59.4545H130.423L131.641 61.0592L132.438 60.4545ZM133.915 60.4545L134.713 59.852L134.413 59.4545H133.915V60.4545ZM135.776 62.919L134.978 63.5216L134.979 63.5234L135.776 62.919ZM136.088 63.331L136.887 62.7289L136.885 62.7266L136.088 63.331ZM138.375 66.3636V67.3636H140.382L139.174 65.7615L138.375 66.3636ZM136.898 66.3636L136.098 66.9632L136.398 67.3636H136.898V66.3636ZM135.222 64.1264L136.022 63.5268L136.022 63.5264L135.222 64.1264ZM134.924 63.7287L135.724 63.1287L135.72 63.124L134.924 63.7287ZM138.105 61.6832L139.006 62.1182L139.007 62.1167L138.105 61.6832ZM135.875 64.2827L136.419 65.1218L136.42 65.1211L135.875 64.2827ZM129.363 64.2827L128.816 65.1199L128.821 65.123L129.363 64.2827ZM127.14 61.6832L126.237 62.1136L126.239 62.1182L127.14 61.6832ZM127.14 53.7784L126.238 53.3449L126.238 53.3465L127.14 53.7784ZM129.37 51.179L129.912 52.0193L129.915 52.0174L129.37 51.179ZM135.875 51.179L135.328 52.0162L135.333 52.0193L135.875 51.179ZM138.105 53.7784L137.204 54.2119L137.205 54.2134L138.105 53.7784ZM137.623 57.7273L136.623 57.7273L136.623 57.7309L137.623 57.7273ZM136.969 54.3821L136.063 54.8052L136.064 54.807L136.969 54.3821ZM135.186 52.2443L135.734 51.4074L135.186 52.2443ZM130.066 52.2443L130.613 53.0812L130.613 53.0812L130.066 52.2443ZM128.276 54.375L127.372 53.9463L127.371 53.9501L128.276 54.375ZM128.276 61.0724L127.371 61.4974L127.371 61.4974L128.276 61.0724ZM130.059 63.2102L129.508 64.0447L129.511 64.0471L130.059 63.2102ZM135.186 63.2102L134.641 62.3718L134.639 62.3734L135.186 63.2102ZM136.976 61.0795L137.881 61.5045L137.882 61.5027L136.976 61.0795ZM132.438 61.4545H133.915V59.4545H132.438V61.4545ZM133.117 61.0571L134.978 63.5216L136.574 62.3165L134.713 59.852L133.117 61.0571ZM134.979 63.5234L135.292 63.9354L136.885 62.7266L136.573 62.3146L134.979 63.5234ZM135.29 63.9331L137.577 66.9657L139.174 65.7615L136.887 62.7289L135.29 63.9331ZM138.375 65.3636H136.898V67.3636H138.375V65.3636ZM137.698 65.764L136.022 63.5268L134.422 64.726L136.098 66.9632L137.698 65.764ZM136.022 63.5264L135.724 63.1287L134.124 64.3287L134.422 64.7264L136.022 63.5264ZM135.72 63.124L133.234 59.8499L131.641 61.0592L134.127 64.3334L135.72 63.124ZM137.915 57.7273C137.915 59.1243 137.666 60.289 137.204 61.2498L139.007 62.1167C139.624 60.8332 139.915 59.3605 139.915 57.7273H137.915ZM137.205 61.2483C136.737 62.218 136.109 62.9379 135.33 63.4442L136.42 65.1211C137.535 64.3964 138.395 63.3833 139.006 62.1182L137.205 61.2483ZM135.331 63.4436C134.566 63.9397 133.674 64.1989 132.623 64.1989V66.1989C134.023 66.1989 135.3 65.8472 136.419 65.1218L135.331 63.4436ZM132.623 64.1989C131.571 64.1989 130.676 63.9397 129.905 63.4423L128.821 65.123C129.943 65.8472 131.222 66.1989 132.623 66.1989V64.1989ZM129.909 63.4455C129.135 62.9394 128.509 62.2193 128.04 61.2483L126.239 62.1182C126.85 63.382 127.706 64.3949 128.816 65.1199L129.909 63.4455ZM128.042 61.2529C127.584 60.2913 127.337 59.1255 127.337 57.7273H125.337C125.337 59.3594 125.625 60.8309 126.237 62.1136L128.042 61.2529ZM127.337 57.7273C127.337 56.3289 127.584 55.1662 128.041 54.2103L126.238 53.3465C125.625 54.6255 125.337 56.0953 125.337 57.7273H127.337ZM128.041 54.2119C128.509 53.2379 129.136 52.5199 129.912 52.0193L128.828 50.3386C127.71 51.0596 126.849 52.0746 126.238 53.3449L128.041 54.2119ZM129.915 52.0174C130.686 51.516 131.578 51.2557 132.623 51.2557V49.2557C131.224 49.2557 129.947 49.6109 128.825 50.3405L129.915 52.0174ZM132.623 51.2557C133.673 51.2557 134.563 51.5164 135.328 52.0162L136.422 50.3418C135.303 49.6105 134.025 49.2557 132.623 49.2557V51.2557ZM135.333 52.0193C136.109 52.5199 136.736 53.2379 137.204 54.2119L139.007 53.3449C138.396 52.0746 137.535 51.0596 136.417 50.3386L135.333 52.0193ZM137.205 54.2134C137.666 55.1685 137.915 56.3301 137.915 57.7273H139.915C139.915 56.0942 139.624 54.6232 139.006 53.3434L137.205 54.2134ZM138.623 57.7273C138.623 56.3167 138.387 55.049 137.874 53.9572L136.064 54.807C136.423 55.5712 136.623 56.5337 136.623 57.7273H138.623ZM137.875 53.959C137.372 52.8825 136.664 52.0158 135.734 51.4074L134.639 53.0812C135.215 53.4577 135.695 54.0162 136.063 54.8052L137.875 53.959ZM135.734 51.4074C134.808 50.8017 133.761 50.5057 132.623 50.5057V52.5057C133.397 52.5057 134.059 52.7021 134.639 53.0812L135.734 51.4074ZM132.623 50.5057C131.488 50.5057 130.444 50.8023 129.518 51.4074L130.613 53.0812C131.194 52.7015 131.853 52.5057 132.623 52.5057V50.5057ZM129.518 51.4074C128.591 52.0142 127.88 52.8761 127.372 53.9463L129.179 54.8037C129.552 54.0178 130.035 53.4592 130.613 53.0812L129.518 51.4074ZM127.371 53.9501C126.858 55.0424 126.623 56.3126 126.623 57.7273H128.623C128.623 56.5283 128.823 55.5637 129.181 54.7999L127.371 53.9501ZM126.623 57.7273C126.623 59.1378 126.858 60.4055 127.371 61.4974L129.181 60.6475C128.822 59.8833 128.623 58.9209 128.623 57.7273H126.623ZM127.371 61.4974C127.874 62.5687 128.581 63.4329 129.508 64.0447L130.61 62.3758C130.03 61.9932 129.55 61.4323 129.181 60.6475L127.371 61.4974ZM129.511 64.0471C130.437 64.6528 131.485 64.9489 132.623 64.9489V62.9489C131.848 62.9489 131.186 62.7525 130.606 62.3734L129.511 64.0471ZM132.623 64.9489C133.761 64.9489 134.808 64.6528 135.734 64.0471L134.639 62.3734C134.059 62.7525 133.397 62.9489 132.623 62.9489V64.9489ZM135.731 64.0487C136.666 63.4415 137.378 62.5779 137.881 61.5045L136.071 60.6546C135.704 61.4372 135.223 61.9941 134.641 62.3718L135.731 64.0487ZM137.882 61.5027C138.395 60.4058 138.628 59.1353 138.623 57.7236L136.623 57.7309C136.627 58.9234 136.429 59.8877 136.07 60.6564L137.882 61.5027ZM151.822 50.4545V49.4545H150.822V50.4545H151.822ZM153.15 50.4545H154.15V49.4545H153.15V50.4545ZM152.454 62.7415L153.312 63.2544L153.314 63.2521L152.454 62.7415ZM150.515 64.581L150.99 65.4608L150.992 65.4598L150.515 64.581ZM144.762 64.5739L144.285 65.4527L144.285 65.4527L144.762 64.5739ZM142.823 62.7344L141.965 63.2473L141.965 63.2473L142.823 62.7344ZM142.127 50.4545V49.4545H141.127V50.4545H142.127ZM143.455 50.4545H144.455V49.4545H143.455V50.4545ZM143.974 62.0597L143.105 62.5551L143.107 62.558L143.974 62.0597ZM145.43 63.4801L144.946 64.3552L144.949 64.3567L145.43 63.4801ZM149.847 63.4801L149.366 62.6035L149.366 62.6035L149.847 63.4801ZM151.303 62.0597L150.435 61.5642L150.433 61.5665L151.303 62.0597ZM151.822 51.4545H153.15V49.4545H151.822V51.4545ZM152.15 50.4545V60.0852H154.15V50.4545H152.15ZM152.15 60.0852C152.15 60.9116 151.958 61.6177 151.594 62.2308L153.314 63.2521C153.878 62.3027 154.15 61.238 154.15 60.0852H152.15ZM151.595 62.2285C151.227 62.8444 150.716 63.3341 150.038 63.7021L150.992 65.4598C151.971 64.9282 152.752 64.1916 153.312 63.2544L151.595 62.2285ZM150.04 63.7011C149.385 64.055 148.594 64.2486 147.638 64.2486V66.2486C148.87 66.2486 149.998 65.9971 150.99 65.4608L150.04 63.7011ZM147.638 64.2486C146.69 64.2486 145.9 64.0538 145.239 63.695L144.285 65.4527C145.281 65.9936 146.409 66.2486 147.638 66.2486V64.2486ZM145.239 63.695C144.561 63.327 144.05 62.8373 143.682 62.2214L141.965 63.2473C142.525 64.1845 143.306 64.9211 144.285 65.4527L145.239 63.695ZM143.682 62.2214C143.319 61.6143 143.127 60.9117 143.127 60.0852H141.127C141.127 61.2379 141.399 62.3014 141.965 63.2473L143.682 62.2214ZM143.127 60.0852V50.4545H141.127V60.0852H143.127ZM142.127 51.4545H143.455V49.4545H142.127V51.4545ZM142.455 50.4545V59.9929H144.455V50.4545H142.455ZM142.455 59.9929C142.455 60.9195 142.664 61.7825 143.105 62.5551L144.842 61.5643C144.592 61.1247 144.455 60.6098 144.455 59.9929H142.455ZM143.107 62.558C143.546 63.3224 144.166 63.924 144.946 64.3552L145.914 62.605C145.443 62.3449 145.093 61.9996 144.841 61.5613L143.107 62.558ZM144.949 64.3567C145.749 64.7963 146.657 64.9986 147.638 64.9986V62.9986C146.935 62.9986 146.369 62.8552 145.911 62.6035L144.949 64.3567ZM147.638 64.9986C148.62 64.9986 149.528 64.7963 150.328 64.3567L149.366 62.6035C148.908 62.8552 148.342 62.9986 147.638 62.9986V64.9986ZM150.328 64.3567C151.114 63.9255 151.737 63.3221 152.173 62.5528L150.433 61.5665C150.188 61.9999 149.84 62.3434 149.366 62.6035L150.328 64.3567ZM152.172 62.5551C152.613 61.7825 152.822 60.9195 152.822 59.9929H150.822C150.822 60.6098 150.685 61.1247 150.435 61.5643L152.172 62.5551ZM152.822 59.9929V50.4545H150.822V59.9929H152.822ZM158.338 50.4545H159.338V49.4545H158.338V50.4545ZM158.338 65V66H159.338V65H158.338ZM157.01 65H156.01V66H157.01V65ZM157.01 50.4545V49.4545H156.01V50.4545H157.01ZM157.338 50.4545V65H159.338V50.4545H157.338ZM158.338 64H157.01V66H158.338V64ZM158.01 65V50.4545H156.01V65H158.01ZM157.01 51.4545H158.338V49.4545H157.01V51.4545ZM173.533 50.4545H174.533V49.4545H173.533V50.4545ZM173.533 65V66H174.533V65H173.533ZM172.241 65L171.424 65.5765L171.722 66H172.241V65ZM163.647 52.8196L164.464 52.2431L164.165 51.8196H163.647V52.8196ZM163.533 52.8196V51.8196H162.533V52.8196H163.533ZM163.533 65V66H164.533V65H163.533ZM162.205 65H161.205V66H162.205V65ZM162.205 50.4545V49.4545H161.205V50.4545H162.205ZM163.491 50.4545L164.307 49.8772L164.008 49.4545H163.491V50.4545ZM172.113 62.6491L171.296 63.2265L171.595 63.6491H172.113V62.6491ZM172.227 62.6491V63.6491H173.227V62.6491H172.227ZM172.227 50.4545V49.4545H171.227V50.4545H172.227ZM172.533 50.4545V65H174.533V50.4545H172.533ZM173.533 64H172.241V66H173.533V64ZM173.058 64.4235L164.464 52.2431L162.83 53.3961L171.424 65.5765L173.058 64.4235ZM163.647 51.8196H163.533V53.8196H163.647V51.8196ZM162.533 52.8196V65H164.533V52.8196H162.533ZM163.533 64H162.205V66H163.533V64ZM163.205 65V50.4545H161.205V65H163.205ZM162.205 51.4545H163.491V49.4545H162.205V51.4545ZM162.674 51.0319L171.296 63.2265L172.929 62.0718L164.307 49.8772L162.674 51.0319ZM172.113 63.6491H172.227V61.6491H172.113V63.6491ZM173.227 62.6491V50.4545H171.227V62.6491H173.227ZM172.227 51.4545H173.533V49.4545H172.227V51.4545ZM177.422 65V66H178.128L178.364 65.3351L177.422 65ZM176.03 65L175.09 64.6581L174.602 66H176.03V65ZM181.321 50.4545V49.4545H180.621L180.381 50.1127L181.321 50.4545ZM182.741 50.4545L183.681 50.1127L183.442 49.4545H182.741V50.4545ZM188.033 65V66H189.461L188.972 64.6581L188.033 65ZM186.641 65L185.698 65.3351L185.935 66H186.641V65ZM182.081 52.1804L183.023 51.8453L182.787 51.1804H182.081V52.1804ZM181.982 52.1804V51.1804H181.276L181.039 51.8453L181.982 52.1804ZM178.423 59.4247V58.4247H177.423V59.4247H178.423ZM185.639 59.4247H186.639V58.4247H185.639V59.4247ZM185.639 60.6179V61.6179H186.639V60.6179H185.639ZM178.423 60.6179H177.423V61.6179H178.423V60.6179ZM177.422 64H176.03V66H177.422V64ZM176.97 65.3419L182.261 50.7964L180.381 50.1127L175.09 64.6581L176.97 65.3419ZM181.321 51.4545H182.741V49.4545H181.321V51.4545ZM181.802 50.7964L187.093 65.3419L188.972 64.6581L183.681 50.1127L181.802 50.7964ZM188.033 64H186.641V66H188.033V64ZM187.583 64.6649L183.023 51.8453L181.139 52.5155L185.698 65.3351L187.583 64.6649ZM182.081 51.1804H181.982V53.1804H182.081V51.1804ZM181.039 51.8453L176.48 64.6649L178.364 65.3351L182.924 52.5155L181.039 51.8453ZM178.423 60.4247H185.639V58.4247H178.423V60.4247ZM184.639 59.4247V60.6179H186.639V59.4247H184.639ZM185.639 59.6179H178.423V61.6179H185.639V59.6179ZM179.423 60.6179V59.4247H177.423V60.6179H179.423ZM198.423 54.0909L197.428 54.1898L197.518 55.0909H198.423V54.0909ZM197.351 52.1591L197.953 51.3605L197.953 51.3605L197.351 52.1591ZM193.168 51.7898L192.758 50.8777L192.754 50.8791L193.168 51.7898ZM191.96 52.7557L191.146 52.1753L191.145 52.1771L191.96 52.7557ZM191.776 55.1562L190.908 55.6539L190.908 55.6539L191.776 55.1562ZM192.443 55.902L191.845 56.7036L191.853 56.7093L191.861 56.7148L192.443 55.902ZM193.381 56.4276L192.985 57.3461L192.99 57.348L193.381 56.4276ZM194.425 56.7969L194.701 55.8357L194.698 55.8349L194.425 56.7969ZM195.959 57.2372L195.683 58.1985L195.693 58.2013L195.959 57.2372ZM198.622 58.4801L198.002 59.2648L198.013 59.2731L198.622 58.4801ZM199.553 59.581L198.67 60.0511L198.676 60.0625L199.553 59.581ZM199.304 63.2315L198.465 62.6872L198.465 62.6872L199.304 63.2315ZM197.571 64.7088L198.002 65.611L198.007 65.6088L197.571 64.7088ZM192.287 64.7585L191.873 65.6689L191.878 65.6711L192.287 64.7585ZM189.865 61.3636V60.3636H188.795L188.867 61.4314L189.865 61.3636ZM191.229 61.3636L192.225 61.2813L192.149 60.3636H191.229V61.3636ZM191.797 62.8196L191.029 63.4598L191.797 62.8196ZM193.089 63.7287L192.724 64.6595L192.731 64.6623L193.089 63.7287ZM196.797 63.6719L197.191 64.591L197.194 64.5894L196.797 63.6719ZM198.132 62.6491L197.329 62.0533L197.328 62.0548L198.132 62.6491ZM198.239 59.8793L197.443 60.4846L197.447 60.4901L198.239 59.8793ZM197.166 59.0341L196.719 59.9285L196.723 59.9304L197.166 59.0341ZM195.582 58.4304L195.3 59.3898L195.303 59.3905L195.582 58.4304ZM193.842 57.919L193.556 58.8772L193.56 58.8785L193.842 57.919ZM191.186 56.5057L191.877 55.7824L191.877 55.7824L191.186 56.5057ZM190.866 52.1449L190.05 51.5679L190.049 51.5692L190.866 52.1449ZM192.571 50.7528L192.992 51.6601L192.994 51.6589L192.571 50.7528ZM197.393 50.7457L196.964 51.6486L196.964 51.6486L197.393 50.7457ZM199.048 52.1165L198.229 52.6895L198.234 52.6971L199.048 52.1165ZM199.709 54.0909V55.0909H200.748L200.708 54.0525L199.709 54.0909ZM199.418 53.992C199.311 52.912 198.816 52.0114 197.953 51.3605L196.749 52.9577C197.154 53.2633 197.375 53.6505 197.428 54.1898L199.418 53.992ZM197.953 51.3605C197.111 50.726 196.089 50.4418 194.957 50.4418V52.4418C195.748 52.4418 196.322 52.6358 196.749 52.9577L197.953 51.3605ZM194.957 50.4418C194.166 50.4418 193.425 50.5775 192.758 50.8777L193.578 52.7019C193.942 52.538 194.394 52.4418 194.957 52.4418V50.4418ZM192.754 50.8791C192.101 51.1757 191.553 51.6045 191.146 52.1753L192.775 53.336C192.955 53.083 193.212 52.8678 193.581 52.7004L192.754 50.8791ZM191.145 52.1771C190.73 52.761 190.527 53.4291 190.527 54.1477H192.527C192.527 53.8246 192.612 53.5647 192.776 53.3342L191.145 52.1771ZM190.527 54.1477C190.527 54.679 190.643 55.1919 190.908 55.6539L192.643 54.6586C192.577 54.5429 192.527 54.3835 192.527 54.1477H190.527ZM190.908 55.6539C191.145 56.0669 191.462 56.4174 191.845 56.7036L193.041 55.1004C192.866 54.97 192.737 54.8232 192.643 54.6586L190.908 55.6539ZM191.861 56.7148C192.207 56.9627 192.582 57.1726 192.985 57.346L193.776 55.5091C193.497 55.3889 193.248 55.2484 193.026 55.0892L191.861 56.7148ZM192.99 57.348C193.373 57.5106 193.76 57.6477 194.152 57.7589L194.698 55.8349C194.389 55.7472 194.08 55.6381 193.772 55.5071L192.99 57.348ZM194.149 57.7581L195.683 58.1984L196.235 56.276L194.701 55.8357L194.149 57.7581ZM195.693 58.2013C196.111 58.3165 196.533 58.4646 196.957 58.6464L197.745 56.8081C197.241 56.5923 196.734 56.4136 196.224 56.2731L195.693 58.2013ZM196.957 58.6464C197.343 58.8117 197.69 59.0181 198.002 59.2647L199.242 57.6955C198.787 57.3361 198.287 57.0405 197.745 56.8081L196.957 58.6464ZM198.013 59.2731C198.287 59.4838 198.504 59.7403 198.67 60.0511L200.435 59.1109C200.137 58.5504 199.734 58.073 199.231 57.6871L198.013 59.2731ZM198.676 60.0625C198.815 60.3152 198.908 60.6599 198.908 61.1364H200.908C200.908 60.4007 200.764 59.7084 200.429 59.0994L198.676 60.0625ZM198.908 61.1364C198.908 61.7299 198.757 62.2374 198.465 62.6872L200.143 63.7758C200.656 62.9852 200.908 62.0959 200.908 61.1364H198.908ZM198.465 62.6872C198.175 63.135 197.746 63.5131 197.135 63.8088L198.007 65.6088C198.902 65.1754 199.628 64.5686 200.143 63.7758L198.465 62.6872ZM197.14 63.8066C196.552 64.0876 195.805 64.2486 194.865 64.2486V66.2486C196.028 66.2486 197.084 66.0497 198.002 65.611L197.14 63.8066ZM194.865 64.2486C193.984 64.2486 193.27 64.103 192.696 63.8459L191.878 65.6711C192.763 66.0675 193.767 66.2486 194.865 66.2486V64.2486ZM192.701 63.8482C192.112 63.5805 191.684 63.2293 191.381 62.8059L189.755 63.9696C190.285 64.711 191.004 65.2737 191.873 65.6689L192.701 63.8482ZM191.381 62.8059C191.081 62.3856 190.903 61.892 190.863 61.2959L188.867 61.4314C188.931 62.3694 189.222 63.2252 189.755 63.9696L191.381 62.8059ZM189.865 62.3636H191.229V60.3636H189.865V62.3636ZM190.232 61.446C190.294 62.2003 190.551 62.8867 191.029 63.4598L192.565 62.1794C192.38 61.957 192.258 61.6728 192.225 61.2813L190.232 61.446ZM191.029 63.4598C191.478 63.9993 192.053 64.396 192.724 64.6594L193.455 62.7979C193.065 62.6448 192.778 62.4353 192.565 62.1794L191.029 63.4598ZM192.731 64.6623C193.392 64.9158 194.107 65.0341 194.865 65.0341V63.0341C194.316 63.0341 193.848 62.9487 193.448 62.7951L192.731 64.6623ZM194.865 65.0341C195.701 65.0341 196.482 64.8946 197.191 64.591L196.403 62.7527C195.984 62.9321 195.478 63.0341 194.865 63.0341V65.0341ZM197.194 64.5894C197.901 64.2834 198.495 63.8401 198.936 63.2435L197.328 62.0548C197.125 62.3294 196.829 62.568 196.399 62.7543L197.194 64.5894ZM198.935 63.245C199.398 62.6212 199.622 61.8978 199.622 61.1151H197.622C197.622 61.497 197.52 61.7964 197.329 62.0533L198.935 63.245ZM199.622 61.1151C199.622 60.4421 199.444 59.8044 199.03 59.2685L197.447 60.4901C197.545 60.617 197.622 60.8032 197.622 61.1151H199.622ZM199.035 59.2739C198.668 58.7914 198.178 58.4192 197.61 58.1378L196.723 59.9304C197.073 60.1036 197.298 60.2948 197.443 60.4846L199.035 59.2739ZM197.613 58.1397C197.094 57.8802 196.508 57.6586 195.862 57.4703L195.303 59.3905C195.859 59.5526 196.329 59.7335 196.719 59.9285L197.613 58.1397ZM195.864 57.471L194.124 56.9596L193.56 58.8785L195.3 59.3898L195.864 57.471ZM194.129 56.9609C193.086 56.6494 192.358 56.242 191.877 55.7824L190.495 57.2289C191.274 57.972 192.316 58.5068 193.556 58.8772L194.129 56.9609ZM191.877 55.7824C191.46 55.3843 191.241 54.8858 191.241 54.2045H189.241C189.241 55.3888 189.653 56.4244 190.495 57.2289L191.877 55.7824ZM191.241 54.2045C191.241 53.6122 191.396 53.1303 191.684 52.7205L190.049 51.5692C189.504 52.3432 189.241 53.2344 189.241 54.2045H191.241ZM191.683 52.7218C191.996 52.2793 192.422 51.924 192.992 51.6601L192.15 49.8456C191.29 50.2446 190.58 50.8173 190.05 51.5679L191.683 52.7218ZM192.994 51.6589C193.566 51.392 194.226 51.2486 194.993 51.2486V49.2486C193.97 49.2486 193.016 49.4413 192.148 49.8468L192.994 51.6589ZM194.993 51.2486C195.774 51.2486 196.423 51.3913 196.964 51.6486L197.823 49.8429C196.972 49.4373 196.02 49.2486 194.993 49.2486V51.2486ZM196.964 51.6486C197.517 51.9121 197.929 52.2608 198.229 52.6895L199.868 51.5435C199.353 50.8074 198.662 50.2422 197.823 49.8429L196.964 51.6486ZM198.234 52.6971C198.528 53.1091 198.688 53.577 198.71 54.1293L200.708 54.0525C200.672 53.1275 200.393 52.2792 199.862 51.5359L198.234 52.6971ZM199.709 53.0909H198.423V55.0909H199.709V53.0909ZM208.729 65H207.729V66H208.729V65ZM208.729 50.4545V49.4545H207.729V50.4545H208.729ZM217.166 50.4545H218.166V49.4545H217.166V50.4545ZM217.166 51.6477V52.6477H218.166V51.6477H217.166ZM210.057 51.6477V50.6477H209.057V51.6477H210.057ZM210.057 57.1236H209.057V58.1236H210.057V57.1236ZM216.719 57.1236H217.719V56.1236H216.719V57.1236ZM216.719 58.3168V59.3168H217.719V58.3168H216.719ZM210.057 58.3168V57.3168H209.057V58.3168H210.057ZM210.057 63.8068H209.057V64.8068H210.057V63.8068ZM217.308 63.8068H218.308V62.8068H217.308V63.8068ZM217.308 65V66H218.308V65H217.308ZM209.729 65V50.4545H207.729V65H209.729ZM208.729 51.4545H217.166V49.4545H208.729V51.4545ZM216.166 50.4545V51.6477H218.166V50.4545H216.166ZM217.166 50.6477H210.057V52.6477H217.166V50.6477ZM209.057 51.6477V57.1236H211.057V51.6477H209.057ZM210.057 58.1236H216.719V56.1236H210.057V58.1236ZM215.719 57.1236V58.3168H217.719V57.1236H215.719ZM216.719 57.3168H210.057V59.3168H216.719V57.3168ZM209.057 58.3168V63.8068H211.057V58.3168H209.057ZM210.057 64.8068H217.308V62.8068H210.057V64.8068ZM216.308 63.8068V65H218.308V63.8068H216.308ZM217.308 64H208.729V66H217.308V64ZM226.229 65H225.229V66H226.229V65ZM226.229 50.4545V49.4545H225.229V50.4545H226.229ZM234.645 50.4545H235.645V49.4545H234.645V50.4545ZM234.645 51.6477V52.6477H235.645V51.6477H234.645ZM227.557 51.6477V50.6477H226.557V51.6477H227.557ZM227.557 57.1236H226.557V58.1236H227.557V57.1236ZM233.984 57.1236H234.984V56.1236H233.984V57.1236ZM233.984 58.3168V59.3168H234.984V58.3168H233.984ZM227.557 58.3168V57.3168H226.557V58.3168H227.557ZM227.557 65V66H228.557V65H227.557ZM227.229 65V50.4545H225.229V65H227.229ZM226.229 51.4545H234.645V49.4545H226.229V51.4545ZM233.645 50.4545V51.6477H235.645V50.4545H233.645ZM234.645 50.6477H227.557V52.6477H234.645V50.6477ZM226.557 51.6477V57.1236H228.557V51.6477H226.557ZM227.557 58.1236H233.984V56.1236H227.557V58.1236ZM232.984 57.1236V58.3168H234.984V57.1236H232.984ZM233.984 57.3168H227.557V59.3168H233.984V57.3168ZM226.557 58.3168V65H228.557V58.3168H226.557ZM227.557 64H226.229V66H227.557V64ZM237.947 65H236.947V66H237.947V65ZM237.947 50.4545V49.4545H236.947V50.4545H237.947ZM246.385 50.4545H247.385V49.4545H246.385V50.4545ZM246.385 51.6477V52.6477H247.385V51.6477H246.385ZM239.276 51.6477V50.6477H238.276V51.6477H239.276ZM239.276 57.1236H238.276V58.1236H239.276V57.1236ZM245.938 57.1236H246.938V56.1236H245.938V57.1236ZM245.938 58.3168V59.3168H246.938V58.3168H245.938ZM239.276 58.3168V57.3168H238.276V58.3168H239.276ZM239.276 63.8068H238.276V64.8068H239.276V63.8068ZM246.527 63.8068H247.527V62.8068H246.527V63.8068ZM246.527 65V66H247.527V65H246.527ZM238.947 65V50.4545H236.947V65H238.947ZM237.947 51.4545H246.385V49.4545H237.947V51.4545ZM245.385 50.4545V51.6477H247.385V50.4545H245.385ZM246.385 50.6477H239.276V52.6477H246.385V50.6477ZM238.276 51.6477V57.1236H240.276V51.6477H238.276ZM239.276 58.1236H245.938V56.1236H239.276V58.1236ZM244.938 57.1236V58.3168H246.938V57.1236H244.938ZM245.938 57.3168H239.276V59.3168H245.938V57.3168ZM238.276 58.3168V63.8068H240.276V58.3168H238.276ZM239.276 64.8068H246.527V62.8068H239.276V64.8068ZM245.527 63.8068V65H247.527V63.8068H245.527ZM246.527 64H237.947V66H246.527V64ZM249.822 65H248.822V66H249.822V65ZM249.822 50.4545V49.4545H248.822V50.4545H249.822ZM257.102 51.0156L256.626 51.8952L256.634 51.899L257.102 51.0156ZM258.672 52.5568L257.789 53.0268L257.793 53.0343L258.672 52.5568ZM258.672 57.0526L257.795 56.5724L257.792 56.5773L258.672 57.0526ZM257.109 58.5724L256.643 57.6879L256.643 57.6879L257.109 58.5724ZM250.54 59.1193H249.54V60.1193H250.54V59.1193ZM250.54 57.9048V56.9048H249.54V57.9048H250.54ZM256.392 57.5284L255.948 56.6323L255.945 56.634L256.392 57.5284ZM257.521 56.456L256.642 55.9802L256.638 55.9872L257.521 56.456ZM257.521 53.1463L256.636 53.611L256.638 53.6146L257.521 53.1463ZM256.385 52.0384L255.924 52.926L255.928 52.9277L256.385 52.0384ZM251.151 51.6477V50.6477H250.151V51.6477H251.151ZM251.151 65V66H252.151V65H251.151ZM256.236 58.4375L257.114 57.9586L256.829 57.4375H256.236V58.4375ZM259.815 65V66H261.5L260.693 64.5211L259.815 65ZM258.281 65L257.401 65.4752L257.685 66H258.281V65ZM254.737 58.4375V57.4375H253.061L253.857 58.9127L254.737 58.4375ZM250.822 65V50.4545H248.822V65H250.822ZM249.822 51.4545H254.517V49.4545H249.822V51.4545ZM254.517 51.4545C255.433 51.4545 256.12 51.6211 256.626 51.8951L257.578 50.1361C256.702 49.6621 255.665 49.4545 254.517 49.4545V51.4545ZM256.634 51.899C257.164 52.1804 257.538 52.5548 257.789 53.0267L259.555 52.0869C259.105 51.2425 258.433 50.5895 257.571 50.1323L256.634 51.899ZM257.793 53.0343C258.058 53.5218 258.205 54.1039 258.205 54.8082H260.205C260.205 53.8175 259.996 52.8987 259.55 52.0793L257.793 53.0343ZM258.205 54.8082C258.205 55.5127 258.058 56.0912 257.795 56.5724L259.549 57.5328C259.996 56.7166 260.205 55.7988 260.205 54.8082H258.205ZM257.792 56.5773C257.542 57.0409 257.17 57.4099 256.643 57.6879L257.576 59.457C258.431 59.0058 259.101 58.3616 259.552 57.5278L257.792 56.5773ZM256.643 57.6879C256.133 57.9569 255.447 58.1193 254.538 58.1193V60.1193C255.675 60.1193 256.703 59.9172 257.576 59.457L256.643 57.6879ZM254.538 58.1193H250.54V60.1193H254.538V58.1193ZM251.54 59.1193V57.9048H249.54V59.1193H251.54ZM250.54 58.9048H254.503V56.9048H250.54V58.9048ZM254.503 58.9048C255.364 58.9048 256.159 58.7631 256.839 58.4228L255.945 56.634C255.622 56.7956 255.157 56.9048 254.503 56.9048V58.9048ZM256.836 58.4245C257.515 58.0881 258.053 57.588 258.405 56.9247L256.638 55.9872C256.498 56.2519 256.282 56.4668 255.948 56.6323L256.836 58.4245ZM258.401 56.9317C258.745 56.2947 258.898 55.5753 258.898 54.8082H256.898C256.898 55.3101 256.799 55.6892 256.642 55.9803L258.401 56.9317ZM258.898 54.8082C258.898 54.0405 258.745 53.3201 258.405 52.678L256.638 53.6146C256.799 53.9195 256.898 54.307 256.898 54.8082H258.898ZM258.407 52.6816C258.055 52.0108 257.521 51.498 256.842 51.149L255.928 52.9277C256.262 53.0995 256.486 53.3253 256.636 53.611L258.407 52.6816ZM256.846 51.1507C256.16 50.7949 255.354 50.6477 254.482 50.6477V52.6477C255.143 52.6477 255.606 52.761 255.924 52.926L256.846 51.1507ZM254.482 50.6477H251.151V52.6477H254.482V50.6477ZM250.151 51.6477V65H252.151V51.6477H250.151ZM251.151 64H249.822V66H251.151V64ZM255.358 58.9164L258.937 65.4789L260.693 64.5211L257.114 57.9586L255.358 58.9164ZM259.815 64H258.281V66H259.815V64ZM259.161 64.5248L255.617 57.9623L253.857 58.9127L257.401 65.4752L259.161 64.5248ZM254.737 59.4375H256.236V57.4375H254.737V59.4375ZM262.44 65H261.44V66H262.44V65ZM262.44 50.4545V49.4545H261.44V50.4545H262.44ZM269.719 51.0156L269.244 51.8952L269.251 51.899L269.719 51.0156ZM271.289 52.5568L270.406 53.0268L270.41 53.0343L271.289 52.5568ZM271.289 57.0526L270.412 56.5724L270.409 56.5773L271.289 57.0526ZM269.727 58.5724L269.26 57.6879L269.26 57.6879L269.727 58.5724ZM263.157 59.1193H262.157V60.1193H263.157V59.1193ZM263.157 57.9048V56.9048H262.157V57.9048H263.157ZM269.009 57.5284L268.565 56.6323L268.562 56.634L269.009 57.5284ZM270.138 56.456L269.259 55.9802L269.255 55.9872L270.138 56.456ZM270.138 53.1463L269.253 53.611L269.255 53.6146L270.138 53.1463ZM269.002 52.0384L268.542 52.926L268.545 52.9277L269.002 52.0384ZM263.768 51.6477V50.6477H262.768V51.6477H263.768ZM263.768 65V66H264.768V65H263.768ZM268.853 58.4375L269.731 57.9586L269.447 57.4375H268.853V58.4375ZM272.433 65V66H274.117L273.31 64.5211L272.433 65ZM270.898 65L270.019 65.4752L270.302 66H270.898V65ZM267.354 58.4375V57.4375H265.678L266.475 58.9127L267.354 58.4375ZM263.44 65V50.4545H261.44V65H263.44ZM262.44 51.4545H267.134V49.4545H262.44V51.4545ZM267.134 51.4545C268.051 51.4545 268.737 51.6211 269.244 51.8951L270.195 50.1361C269.319 49.6621 268.282 49.4545 267.134 49.4545V51.4545ZM269.251 51.899C269.781 52.1804 270.155 52.5548 270.406 53.0267L272.172 52.0869C271.722 51.2425 271.05 50.5895 270.188 50.1323L269.251 51.899ZM270.41 53.0343C270.675 53.5218 270.822 54.1039 270.822 54.8082H272.822C272.822 53.8175 272.613 52.8987 272.168 52.0793L270.41 53.0343ZM270.822 54.8082C270.822 55.5127 270.675 56.0912 270.412 56.5724L272.166 57.5328C272.613 56.7166 272.822 55.7988 272.822 54.8082H270.822ZM270.409 56.5773C270.159 57.0409 269.787 57.4099 269.26 57.6879L270.193 59.457C271.049 59.0058 271.719 58.3616 272.169 57.5278L270.409 56.5773ZM269.26 57.6879C268.75 57.9569 268.064 58.1193 267.156 58.1193V60.1193C268.292 60.1193 269.32 59.9172 270.193 59.457L269.26 57.6879ZM267.156 58.1193H263.157V60.1193H267.156V58.1193ZM264.157 59.1193V57.9048H262.157V59.1193H264.157ZM263.157 58.9048H267.12V56.9048H263.157V58.9048ZM267.12 58.9048C267.981 58.9048 268.776 58.7631 269.456 58.4228L268.562 56.634C268.239 56.7956 267.774 56.9048 267.12 56.9048V58.9048ZM269.453 58.4245C270.132 58.0881 270.67 57.588 271.022 56.9247L269.255 55.9872C269.115 56.2519 268.9 56.4668 268.565 56.6323L269.453 58.4245ZM271.018 56.9317C271.363 56.2947 271.515 55.5753 271.515 54.8082H269.515C269.515 55.3101 269.416 55.6892 269.259 55.9803L271.018 56.9317ZM271.515 54.8082C271.515 54.0405 271.362 53.3201 271.022 52.678L269.255 53.6146C269.417 53.9195 269.515 54.307 269.515 54.8082H271.515ZM271.024 52.6816C270.672 52.0108 270.138 51.498 269.459 51.149L268.545 52.9277C268.879 53.0995 269.103 53.3253 269.253 53.611L271.024 52.6816ZM269.463 51.1507C268.777 50.7949 267.972 50.6477 267.099 50.6477V52.6477C267.76 52.6477 268.224 52.761 268.542 52.926L269.463 51.1507ZM267.099 50.6477H263.768V52.6477H267.099V50.6477ZM262.768 51.6477V65H264.768V51.6477H262.768ZM263.768 64H262.44V66H263.768V64ZM267.975 58.9164L271.555 65.4789L273.31 64.5211L269.731 57.9586L267.975 58.9164ZM272.433 64H270.898V66H272.433V64ZM271.778 64.5248L268.234 57.9623L266.475 58.9127L270.019 65.4752L271.778 64.5248ZM267.354 59.4375H268.853V57.4375H267.354V59.4375ZM275.078 65V66H275.784L276.02 65.3351L275.078 65ZM273.686 65L272.746 64.6581L272.258 66H273.686V65ZM278.977 50.4545V49.4545H278.277L278.038 50.1127L278.977 50.4545ZM280.398 50.4545L281.337 50.1127L281.098 49.4545H280.398V50.4545ZM285.689 65V66H287.117L286.629 64.6581L285.689 65ZM284.297 65L283.355 65.3351L283.591 66H284.297V65ZM279.737 52.1804L280.679 51.8453L280.443 51.1804H279.737V52.1804ZM279.638 52.1804V51.1804H278.932L278.696 51.8453L279.638 52.1804ZM276.08 59.4247V58.4247H275.08V59.4247H276.08ZM283.295 59.4247H284.295V58.4247H283.295V59.4247ZM283.295 60.6179V61.6179H284.295V60.6179H283.295ZM276.08 60.6179H275.08V61.6179H276.08V60.6179ZM275.078 64H273.686V66H275.078V64ZM274.626 65.3419L279.917 50.7964L278.038 50.1127L272.746 64.6581L274.626 65.3419ZM278.977 51.4545H280.398V49.4545H278.977V51.4545ZM279.458 50.7964L284.749 65.3419L286.629 64.6581L281.337 50.1127L279.458 50.7964ZM285.689 64H284.297V66H285.689V64ZM285.239 64.6649L280.679 51.8453L278.795 52.5155L283.355 65.3351L285.239 64.6649ZM279.737 51.1804H279.638V53.1804H279.737V51.1804ZM278.696 51.8453L274.136 64.6649L276.02 65.3351L280.58 52.5155L278.696 51.8453ZM276.08 60.4247H283.295V58.4247H276.08V60.4247ZM282.295 59.4247V60.6179H284.295V59.4247H282.295ZM283.295 59.6179H276.08V61.6179H283.295V59.6179ZM277.08 60.6179V59.4247H275.08V60.6179H277.08ZM288.182 50.4545V49.4545H287.182V50.4545H288.182ZM289.716 50.4545L290.639 50.0701L290.383 49.4545H289.716V50.4545ZM294.993 63.125L294.07 63.5095L294.326 64.125H294.993V63.125ZM295.121 63.125V64.125H295.788L296.044 63.5095L295.121 63.125ZM300.398 50.4545V49.4545H299.731L299.475 50.0701L300.398 50.4545ZM301.932 50.4545H302.932V49.4545H301.932V50.4545ZM301.932 65V66H302.932V65H301.932ZM300.682 65H299.682V66H300.682V65ZM300.682 53.2599H301.682V52.2599H300.682V53.2599ZM300.568 53.2599V52.2599H299.902L299.646 52.8743L300.568 53.2599ZM295.661 65V66H296.326L296.583 65.3857L295.661 65ZM294.453 65L293.53 65.3857L293.787 66H294.453V65ZM289.545 53.2599L290.468 52.8743L290.211 52.2599H289.545V53.2599ZM289.432 53.2599V52.2599H288.432V53.2599H289.432ZM289.432 65V66H290.432V65H289.432ZM288.182 65H287.182V66H288.182V65ZM288.182 51.4545H289.716V49.4545H288.182V51.4545ZM288.793 50.839L294.07 63.5095L295.916 62.7405L290.639 50.0701L288.793 50.839ZM294.993 64.125H295.121V62.125H294.993V64.125ZM296.044 63.5095L301.321 50.839L299.475 50.0701L294.198 62.7405L296.044 63.5095ZM300.398 51.4545H301.932V49.4545H300.398V51.4545ZM300.932 50.4545V65H302.932V50.4545H300.932ZM301.932 64H300.682V66H301.932V64ZM301.682 65V53.2599H299.682V65H301.682ZM300.682 52.2599H300.568V54.2599H300.682V52.2599ZM299.646 52.8743L294.738 64.6143L296.583 65.3857L301.491 53.6456L299.646 52.8743ZM295.661 64H294.453V66H295.661V64ZM295.376 64.6143L290.468 52.8743L288.623 53.6456L293.53 65.3857L295.376 64.6143ZM289.545 52.2599H289.432V54.2599H289.545V52.2599ZM288.432 53.2599V65H290.432V53.2599H288.432ZM289.432 64H288.182V66H289.432V64ZM289.182 65V50.4545H287.182V65H289.182ZM305.799 65H304.799V66H305.799V65ZM305.799 50.4545V49.4545H304.799V50.4545H305.799ZM314.237 50.4545H315.237V49.4545H314.237V50.4545ZM314.237 51.6477V52.6477H315.237V51.6477H314.237ZM307.127 51.6477V50.6477H306.127V51.6477H307.127ZM307.127 57.1236H306.127V58.1236H307.127V57.1236ZM313.789 57.1236H314.789V56.1236H313.789V57.1236ZM313.789 58.3168V59.3168H314.789V58.3168H313.789ZM307.127 58.3168V57.3168H306.127V58.3168H307.127ZM307.127 63.8068H306.127V64.8068H307.127V63.8068ZM314.379 63.8068H315.379V62.8068H314.379V63.8068ZM314.379 65V66H315.379V65H314.379ZM306.799 65V50.4545H304.799V65H306.799ZM305.799 51.4545H314.237V49.4545H305.799V51.4545ZM313.237 50.4545V51.6477H315.237V50.4545H313.237ZM314.237 50.6477H307.127V52.6477H314.237V50.6477ZM306.127 51.6477V57.1236H308.127V51.6477H306.127ZM307.127 58.1236H313.789V56.1236H307.127V58.1236ZM312.789 57.1236V58.3168H314.789V57.1236H312.789ZM313.789 57.3168H307.127V59.3168H313.789V57.3168ZM306.127 58.3168V63.8068H308.127V58.3168H306.127ZM307.127 64.8068H314.379V62.8068H307.127V64.8068ZM313.379 63.8068V65H315.379V63.8068H313.379ZM314.379 64H305.799V66H314.379V64ZM329.002 50.4545H330.002V49.4545H329.002V50.4545ZM329.002 65V66H330.002V65H329.002ZM327.71 65L326.892 65.5765L327.191 66H327.71V65ZM319.116 52.8196L319.933 52.2431L319.634 51.8196H319.116V52.8196ZM319.002 52.8196V51.8196H318.002V52.8196H319.002ZM319.002 65V66H320.002V65H319.002ZM317.674 65H316.674V66H317.674V65ZM317.674 50.4545V49.4545H316.674V50.4545H317.674ZM318.96 50.4545L319.776 49.8772L319.477 49.4545H318.96V50.4545ZM327.582 62.6491L326.765 63.2265L327.064 63.6491H327.582V62.6491ZM327.695 62.6491V63.6491H328.695V62.6491H327.695ZM327.695 50.4545V49.4545H326.695V50.4545H327.695ZM328.002 50.4545V65H330.002V50.4545H328.002ZM329.002 64H327.71V66H329.002V64ZM328.527 64.4235L319.933 52.2431L318.299 53.3961L326.892 65.5765L328.527 64.4235ZM319.116 51.8196H319.002V53.8196H319.116V51.8196ZM318.002 52.8196V65H320.002V52.8196H318.002ZM319.002 64H317.674V66H319.002V64ZM318.674 65V50.4545H316.674V65H318.674ZM317.674 51.4545H318.96V49.4545H317.674V51.4545ZM318.143 51.0319L326.765 63.2265L328.398 62.0718L319.776 49.8772L318.143 51.0319ZM327.582 63.6491H327.695V61.6491H327.582V63.6491ZM328.695 62.6491V50.4545H326.695V62.6491H328.695ZM327.695 51.4545H329.002V49.4545H327.695V51.4545ZM331.989 51.6477H330.989V52.6477H331.989V51.6477ZM331.989 50.4545V49.4545H330.989V50.4545H331.989ZM342.536 50.4545H343.536V49.4545H342.536V50.4545ZM342.536 51.6477V52.6477H343.536V51.6477H342.536ZM337.926 51.6477V50.6477H336.926V51.6477H337.926ZM337.926 65V66H338.926V65H337.926ZM336.598 65H335.598V66H336.598V65ZM336.598 51.6477H337.598V50.6477H336.598V51.6477ZM332.989 51.6477V50.4545H330.989V51.6477H332.989ZM331.989 51.4545H342.536V49.4545H331.989V51.4545ZM341.536 50.4545V51.6477H343.536V50.4545H341.536ZM342.536 50.6477H337.926V52.6477H342.536V50.6477ZM336.926 51.6477V65H338.926V51.6477H336.926ZM337.926 64H336.598V66H337.926V64ZM337.598 65V51.6477H335.598V65H337.598ZM336.598 50.6477H331.989V52.6477H336.598V50.6477ZM343.848 65V66H344.553L344.79 65.3351L343.848 65ZM342.456 65L341.516 64.6581L341.028 66H342.456V65ZM347.747 50.4545V49.4545H347.046L346.807 50.1127L347.747 50.4545ZM349.167 50.4545L350.107 50.1127L349.868 49.4545H349.167V50.4545ZM354.458 65V66H355.886L355.398 64.6581L354.458 65ZM353.066 65L352.124 65.3351L352.361 66H353.066V65ZM348.507 52.1804L349.449 51.8453L349.212 51.1804H348.507V52.1804ZM348.407 52.1804V51.1804H347.702L347.465 51.8453L348.407 52.1804ZM344.849 59.4247V58.4247H343.849V59.4247H344.849ZM352.065 59.4247H353.065V58.4247H352.065V59.4247ZM352.065 60.6179V61.6179H353.065V60.6179H352.065ZM344.849 60.6179H343.849V61.6179H344.849V60.6179ZM343.848 64H342.456V66H343.848V64ZM343.395 65.3419L348.687 50.7964L346.807 50.1127L341.516 64.6581L343.395 65.3419ZM347.747 51.4545H349.167V49.4545H347.747V51.4545ZM348.228 50.7964L353.519 65.3419L355.398 64.6581L350.107 50.1127L348.228 50.7964ZM354.458 64H353.066V66H354.458V64ZM354.009 64.6649L349.449 51.8453L347.565 52.5155L352.124 65.3351L354.009 64.6649ZM348.507 51.1804H348.407V53.1804H348.507V51.1804ZM347.465 51.8453L342.905 64.6649L344.79 65.3351L349.349 52.5155L347.465 51.8453ZM344.849 60.4247H352.065V58.4247H344.849V60.4247ZM351.065 59.4247V60.6179H353.065V59.4247H351.065ZM352.065 59.6179H344.849V61.6179H352.065V59.6179ZM345.849 60.6179V59.4247H343.849V60.6179H345.849ZM364.849 54.0909L363.854 54.1898L363.944 55.0909H364.849V54.0909ZM363.777 52.1591L364.379 51.3605L364.379 51.3605L363.777 52.1591ZM359.593 51.7898L359.183 50.8777L359.18 50.8791L359.593 51.7898ZM358.386 52.7557L357.572 52.1753L357.57 52.1771L358.386 52.7557ZM358.201 55.1562L357.334 55.6539L357.334 55.6539L358.201 55.1562ZM358.869 55.902L358.271 56.7036L358.279 56.7093L358.286 56.7148L358.869 55.902ZM359.806 56.4276L359.411 57.3461L359.416 57.348L359.806 56.4276ZM360.85 56.7969L361.126 55.8357L361.124 55.8349L360.85 56.7969ZM362.385 57.2372L362.109 58.1985L362.119 58.2013L362.385 57.2372ZM365.048 58.4801L364.428 59.2648L364.439 59.2731L365.048 58.4801ZM365.978 59.581L365.096 60.0511L365.102 60.0625L365.978 59.581ZM365.73 63.2315L364.891 62.6872L364.891 62.6872L365.73 63.2315ZM363.997 64.7088L364.428 65.611L364.433 65.6088L363.997 64.7088ZM358.713 64.7585L358.299 65.6689L358.304 65.6711L358.713 64.7585ZM356.291 61.3636V60.3636H355.221L355.293 61.4314L356.291 61.3636ZM357.654 61.3636L358.651 61.2813L358.575 60.3636H357.654V61.3636ZM358.223 62.8196L357.454 63.4598L358.223 62.8196ZM359.515 63.7287L359.15 64.6595L359.157 64.6623L359.515 63.7287ZM363.223 63.6719L363.617 64.591L363.62 64.5894L363.223 63.6719ZM364.558 62.6491L363.755 62.0533L363.754 62.0548L364.558 62.6491ZM364.664 59.8793L363.868 60.4846L363.873 60.4901L364.664 59.8793ZM363.592 59.0341L363.145 59.9285L363.148 59.9304L363.592 59.0341ZM362.008 58.4304L361.726 59.3898L361.728 59.3905L362.008 58.4304ZM360.268 57.919L359.982 58.8772L359.986 58.8785L360.268 57.919ZM357.612 56.5057L358.302 55.7824L358.302 55.7824L357.612 56.5057ZM357.292 52.1449L356.475 51.5679L356.475 51.5692L357.292 52.1449ZM358.997 50.7528L359.417 51.6601L359.42 51.6589L358.997 50.7528ZM363.819 50.7457L363.389 51.6486L363.389 51.6486L363.819 50.7457ZM365.474 52.1165L364.654 52.6895L364.66 52.6971L365.474 52.1165ZM366.135 54.0909V55.0909H367.174L367.134 54.0525L366.135 54.0909ZM365.844 53.992C365.737 52.912 365.242 52.0114 364.379 51.3605L363.175 52.9577C363.58 53.2633 363.8 53.6505 363.854 54.1898L365.844 53.992ZM364.379 51.3605C363.537 50.726 362.515 50.4418 361.383 50.4418V52.4418C362.174 52.4418 362.748 52.6358 363.175 52.9577L364.379 51.3605ZM361.383 50.4418C360.592 50.4418 359.851 50.5775 359.183 50.8777L360.003 52.7019C360.368 52.538 360.82 52.4418 361.383 52.4418V50.4418ZM359.18 50.8791C358.526 51.1757 357.978 51.6045 357.572 52.1753L359.2 53.336C359.381 53.083 359.638 52.8678 360.007 52.7004L359.18 50.8791ZM357.57 52.1771C357.156 52.761 356.953 53.4291 356.953 54.1477H358.953C358.953 53.8246 359.038 53.5647 359.202 53.3342L357.57 52.1771ZM356.953 54.1477C356.953 54.679 357.069 55.1919 357.334 55.6539L359.069 54.6586C359.002 54.5429 358.953 54.3835 358.953 54.1477H356.953ZM357.334 55.6539C357.571 56.0669 357.887 56.4174 358.271 56.7036L359.467 55.1004C359.292 54.97 359.163 54.8232 359.069 54.6586L357.334 55.6539ZM358.286 56.7148C358.632 56.9627 359.008 57.1726 359.411 57.346L360.202 55.5091C359.923 55.3889 359.674 55.2484 359.451 55.0892L358.286 56.7148ZM359.416 57.348C359.798 57.5106 360.186 57.6477 360.577 57.7589L361.124 55.8349C360.814 55.7472 360.506 55.6381 360.197 55.5071L359.416 57.348ZM360.575 57.7581L362.109 58.1984L362.66 56.276L361.126 55.8357L360.575 57.7581ZM362.119 58.2013C362.537 58.3165 362.958 58.4646 363.383 58.6464L364.171 56.8081C363.667 56.5923 363.16 56.4136 362.65 56.2731L362.119 58.2013ZM363.383 58.6464C363.768 58.8117 364.116 59.0181 364.428 59.2647L365.668 57.6955C365.213 57.3361 364.713 57.0405 364.171 56.8081L363.383 58.6464ZM364.439 59.2731C364.713 59.4838 364.93 59.7403 365.096 60.0511L366.861 59.1109C366.562 58.5504 366.159 58.073 365.657 57.6871L364.439 59.2731ZM365.102 60.0625C365.241 60.3152 365.333 60.6599 365.333 61.1364H367.333C367.333 60.4007 367.189 59.7084 366.855 59.0994L365.102 60.0625ZM365.333 61.1364C365.333 61.7299 365.183 62.2374 364.891 62.6872L366.569 63.7758C367.082 62.9852 367.333 62.0959 367.333 61.1364H365.333ZM364.891 62.6872C364.6 63.135 364.172 63.5131 363.561 63.8088L364.433 65.6088C365.328 65.1754 366.054 64.5686 366.569 63.7758L364.891 62.6872ZM363.566 63.8066C362.978 64.0876 362.23 64.2486 361.291 64.2486V66.2486C362.454 66.2486 363.51 66.0497 364.428 65.611L363.566 63.8066ZM361.291 64.2486C360.409 64.2486 359.695 64.103 359.122 63.8459L358.304 65.6711C359.188 66.0675 360.193 66.2486 361.291 66.2486V64.2486ZM359.127 63.8482C358.538 63.5805 358.11 63.2293 357.807 62.8059L356.181 63.9696C356.711 64.711 357.429 65.2737 358.299 65.6689L359.127 63.8482ZM357.807 62.8059C357.507 62.3856 357.329 61.892 357.289 61.2959L355.293 61.4314C355.357 62.3694 355.648 63.2252 356.181 63.9696L357.807 62.8059ZM356.291 62.3636H357.654V60.3636H356.291V62.3636ZM356.658 61.446C356.72 62.2003 356.977 62.8867 357.454 63.4598L358.991 62.1794C358.806 61.957 358.683 61.6728 358.651 61.2813L356.658 61.446ZM357.454 63.4598C357.904 63.9993 358.479 64.396 359.15 64.6594L359.881 62.7979C359.491 62.6448 359.204 62.4353 358.991 62.1794L357.454 63.4598ZM359.157 64.6623C359.817 64.9158 360.533 65.0341 361.291 65.0341V63.0341C360.742 63.0341 360.274 62.9487 359.874 62.7951L359.157 64.6623ZM361.291 65.0341C362.126 65.0341 362.908 64.8946 363.617 64.591L362.829 62.7527C362.41 62.9321 361.904 63.0341 361.291 63.0341V65.0341ZM363.62 64.5894C364.327 64.2834 364.921 63.8401 365.362 63.2435L363.754 62.0548C363.551 62.3294 363.255 62.568 362.825 62.7543L363.62 64.5894ZM365.361 63.245C365.824 62.6212 366.048 61.8978 366.048 61.1151H364.048C364.048 61.497 363.945 61.7964 363.755 62.0533L365.361 63.245ZM366.048 61.1151C366.048 60.4421 365.87 59.8044 365.456 59.2685L363.873 60.4901C363.971 60.617 364.048 60.8032 364.048 61.1151H366.048ZM365.46 59.2739C365.093 58.7914 364.604 58.4192 364.035 58.1378L363.148 59.9304C363.498 60.1036 363.724 60.2948 363.868 60.4846L365.46 59.2739ZM364.039 58.1397C363.52 57.8802 362.934 57.6586 362.288 57.4703L361.728 59.3905C362.285 59.5526 362.755 59.7335 363.145 59.9285L364.039 58.1397ZM362.29 57.471L360.55 56.9596L359.986 58.8785L361.726 59.3898L362.29 57.471ZM360.554 56.9609C359.512 56.6494 358.784 56.242 358.302 55.7824L356.921 57.2289C357.699 57.972 358.742 58.5068 359.982 58.8772L360.554 56.9609ZM358.302 55.7824C357.886 55.3843 357.667 54.8858 357.667 54.2045H355.667C355.667 55.3888 356.079 56.4244 356.921 57.2289L358.302 55.7824ZM357.667 54.2045C357.667 53.6122 357.821 53.1303 358.11 52.7205L356.475 51.5692C355.93 52.3432 355.667 53.2344 355.667 54.2045H357.667ZM358.109 52.7218C358.422 52.2793 358.848 51.924 359.417 51.6601L358.576 49.8456C357.716 50.2446 357.006 50.8173 356.475 51.5679L358.109 52.7218ZM359.42 51.6589C359.991 51.392 360.651 51.2486 361.419 51.2486V49.2486C360.396 49.2486 359.442 49.4413 358.574 49.8468L359.42 51.6589ZM361.419 51.2486C362.2 51.2486 362.849 51.3913 363.389 51.6486L364.249 49.8429C363.398 49.4373 362.446 49.2486 361.419 49.2486V51.2486ZM363.389 51.6486C363.943 51.9121 364.355 52.2608 364.655 52.6895L366.294 51.5435C365.779 50.8074 365.088 50.2422 364.249 49.8429L363.389 51.6486ZM364.66 52.6971C364.954 53.1091 365.114 53.577 365.135 54.1293L367.134 54.0525C367.098 53.1275 366.818 52.2792 366.288 51.5359L364.66 52.6971ZM366.135 53.0909H364.849V55.0909H366.135V53.0909Z" fill="#FFE62A"/>
<path d="M19.3814 2H10.0137H0V65H39.8935L47 41.8341H19.3814V2Z" fill="#FFE62A"/>
<path d="M51 65V4.20068V0H101L96.1768 13.9286H69.9711V26.9728H96.1768L89.1029 42.6701H69.9711V65H51Z" fill="#FFE62A"/>
</svg>
