<svg width="36" height="33" viewBox="0 0 36 33" fill="none" xmlns="http://www.w3.org/2000/svg">
<path d="M32.625 28.4481L24.129 20.6601C26.1706 18.4133 27.1887 15.5315 26.9715 12.6142C26.7543 9.69683 25.3184 6.96857 22.9627 4.99695C20.6069 3.02533 17.5126 1.96215 14.3235 2.02857C11.1343 2.09499 8.0959 3.28591 5.84027 5.35358C3.58463 7.42125 2.28544 10.2065 2.21298 13.1298C2.14052 16.0532 3.30035 18.8897 5.45121 21.0491C7.60207 23.2086 10.5784 24.5247 13.7609 24.7239C16.9434 24.923 20.0872 23.9898 22.5383 22.1183L31.0343 29.9063L32.625 28.4481ZM4.50001 13.4063C4.50001 11.5706 5.09383 9.77617 6.20638 8.24988C7.31893 6.72358 8.90024 5.53398 10.7503 4.83151C12.6004 4.12903 14.6362 3.94523 16.6003 4.30335C18.5644 4.66147 20.3685 5.54542 21.7845 6.84343C23.2005 8.14143 24.1648 9.79519 24.5555 11.5956C24.9461 13.396 24.7456 15.2621 23.9793 16.958C23.213 18.654 21.9152 20.1035 20.2502 21.1233C18.5851 22.1432 16.6275 22.6875 14.625 22.6875C11.9406 22.6848 9.367 21.7061 7.46884 19.9661C5.57068 18.2261 4.50299 15.867 4.50001 13.4063Z" fill="white"/>
</svg>
