<svg width="17" height="16" viewBox="0 0 17 16" fill="none" xmlns="http://www.w3.org/2000/svg">
<path d="M6.94904 0C6.25792 0 5.68558 0.630261 5.68558 1.3913V2.08696H3.79038V1.3913H2.52692V2.08696H1.26346C0.572348 2.08696 0 2.71722 0 3.47826V14.6087C0 15.3697 0.572348 16 1.26346 16H15.1615C15.8527 16 16.425 15.3697 16.425 14.6087V3.47826C16.425 2.71722 15.8527 2.08696 15.1615 2.08696H13.8981V1.3913H12.6346V2.08696H10.7394V1.3913C10.7394 0.630261 10.1671 0 9.47596 0H6.94904ZM6.94904 1.3913H9.47596V2.08696H6.94904V1.3913ZM1.26346 3.47826H15.1615V14.6087H13.8981V4.17391H12.6346V14.6087H3.79038V4.17391H2.52692V14.6087H1.26346V3.47826Z" fill="black"/>
</svg>
