<svg width="17" height="16" viewBox="0 0 17 16" fill="none" xmlns="http://www.w3.org/2000/svg">
<path d="M8.0358 15.8513C8.20954 15.948 8.41771 16 8.6312 16C8.8447 16 9.05286 15.948 9.2266 15.8513C9.53867 15.6793 16.8734 11.5521 16.8436 6.40005C16.8436 2.87122 13.1593 0 8.6312 0C4.10308 0 0.418792 2.87122 0.418792 6.39605C0.389022 11.5521 7.72373 15.6793 8.0358 15.8513ZM8.6312 1.60001C12.0281 1.60001 14.7905 3.75283 14.7905 6.40405C14.8121 9.95448 10.286 13.1425 8.6312 14.1881C6.97743 13.1417 2.45034 9.95288 2.47189 6.40005C2.47189 3.75283 5.23434 1.60001 8.6312 1.60001Z" fill="black"/>
<path d="M8.6312 10C10.3296 10 11.7109 8.6545 11.7109 7C11.7109 5.3455 10.3296 4 8.6312 4C6.93275 4 5.55151 5.3455 5.55151 7C5.55151 8.6545 6.93275 10 8.6312 10ZM8.6312 5.5C9.48043 5.5 10.171 6.17275 10.171 7C10.171 7.82725 9.48043 8.5 8.6312 8.5C7.78198 8.5 7.09136 7.82725 7.09136 7C7.09136 6.17275 7.78198 5.5 8.6312 5.5Z" fill="black"/>
</svg>
