<svg width="19" height="18" viewBox="0 0 19 18" fill="none" xmlns="http://www.w3.org/2000/svg">
<path d="M8.02512 4.3926L5.24685 1.26879C4.92657 0.908811 4.33938 0.910411 3.96735 1.27359L1.68265 3.50306C1.00265 4.16622 0.808019 5.15096 1.2014 5.94051C3.55149 10.6802 7.47575 14.5081 12.3383 16.8039C13.1481 17.187 14.1582 16.9974 14.8382 16.3343L17.1442 14.084C17.5179 13.72 17.5187 13.1449 17.1459 12.8329L13.9266 10.1411C13.5899 9.85947 13.0668 9.89627 12.7292 10.2259L11.609 11.3186C11.5517 11.3771 11.4762 11.4157 11.3942 11.4284C11.3121 11.4412 11.2281 11.4273 11.1549 11.389C9.32388 10.3619 7.80502 8.88052 6.75302 7.09564C6.71362 7.02425 6.69935 6.94223 6.71241 6.86218C6.72546 6.78213 6.76511 6.70846 6.82529 6.65247L7.94218 5.56373C8.28053 5.23255 8.31749 4.72058 8.02512 4.3918V4.3926Z" stroke="black" stroke-width="2" stroke-linecap="round" stroke-linejoin="round"/>
</svg>
