<svg width="18" height="15" viewBox="0 0 18 15" fill="none" xmlns="http://www.w3.org/2000/svg">
<path d="M1.23254 13.346C1.23254 13.346 3.45554 10.5 8.94071 10.5C14.4259 10.5 16.6499 13.346 16.6499 13.346M8.94071 7C9.73422 7 10.4952 6.68393 11.0563 6.12132C11.6174 5.55871 11.9326 4.79565 11.9326 4C11.9326 3.20435 11.6174 2.44129 11.0563 1.87868C10.4952 1.31607 9.73422 1 8.94071 1C8.14721 1 7.3862 1.31607 6.82511 1.87868C6.26402 2.44129 5.9488 3.20435 5.9488 4C5.9488 4.79565 6.26402 5.55871 6.82511 6.12132C7.3862 6.68393 8.14721 7 8.94071 7V7Z" stroke="white" stroke-width="1.5" stroke-linecap="round" stroke-linejoin="round"/>
</svg>
