<svg width="34" height="21" viewBox="0 0 34 21" fill="none" xmlns="http://www.w3.org/2000/svg">
<g clip-path="url(#clip0_100_42)">
<path d="M29.1476 2.92135H9.15668L8.96384 2.41328C8.74958 1.76409 8.26748 1.23486 7.51756 0.825581C6.76763 0.416307 5.87843 0.21167 4.84996 0.21167H1.70027C1.31459 0.21167 0.993197 0.296347 0.736079 0.465702C0.478962 0.635057 0.350403 0.860863 0.350403 1.14312C0.350403 1.39715 0.478962 1.60885 0.736079 1.7782C0.993197 1.94756 1.31459 2.03223 1.70027 2.03223H4.84996C5.66417 2.03223 6.13555 2.27215 6.26411 2.75199L9.4138 13.5907C9.67092 14.1834 10.1744 14.6633 10.9244 15.0302C11.6743 15.3972 12.4992 15.5806 13.3991 15.5806H26.3836C26.8121 15.5806 27.1549 15.4959 27.412 15.3266C27.6691 15.1572 27.7977 14.9455 27.7977 14.6915C27.7977 14.0705 27.3263 13.7601 26.3836 13.7601H13.3991C12.7992 13.7601 12.3707 13.5907 12.1135 13.252L11.985 12.8709H25.7408C26.5978 12.8709 27.3799 12.7016 28.087 12.3629C28.794 12.0242 29.2761 11.5867 29.5333 11.0504L33.2615 5.84272V5.63102C33.2615 4.86893 32.8651 4.22679 32.0723 3.70461C31.2795 3.18244 30.3046 2.92135 29.1476 2.92135ZM12.692 11.0504H11.4707L9.67092 4.74191H12.692V11.0504ZM18.1558 11.0504H15.4561V4.74191H18.1558V11.0504ZM23.6838 11.0504H20.9198V4.74191H23.6838V11.0504ZM27.0906 10.3306V10.4153C26.9621 10.6976 26.7264 10.881 26.3836 10.9657V4.74191H29.1476C29.9189 4.74191 30.3689 4.98183 30.4974 5.46167L27.0906 10.3306ZM16.8059 18.2903C16.8059 18.7984 16.5381 19.2288 16.0024 19.5816C15.4668 19.9345 14.8133 20.1109 14.0419 20.1109C13.3134 20.1109 12.6813 19.9345 12.1457 19.5816C11.61 19.2288 11.3422 18.7984 11.3422 18.2903C11.3422 17.7822 11.61 17.3518 12.1457 16.999C12.6813 16.6461 13.3134 16.4697 14.0419 16.4697C14.8133 16.4697 15.4668 16.6461 16.0024 16.999C16.5381 17.3518 16.8059 17.7822 16.8059 18.2903ZM27.7977 18.2903C27.7977 18.7984 27.5299 19.2288 26.9942 19.5816C26.4586 19.9345 25.805 20.1109 25.0337 20.1109C24.2623 20.1109 23.6088 19.9345 23.0732 19.5816C22.5375 19.2288 22.2697 18.7984 22.2697 18.2903C22.2697 17.7822 22.5375 17.3518 23.0732 16.999C23.6088 16.6461 24.2623 16.4697 25.0337 16.4697C25.805 16.4697 26.4586 16.6461 26.9942 16.999C27.5299 17.3518 27.7977 17.7822 27.7977 18.2903Z" fill="white"/>
</g>
<defs>
<clipPath id="clip0_100_42">
<rect width="32.9111" height="21" fill="white" transform="translate(0.350403)"/>
</clipPath>
</defs>
</svg>
